<svg xmlns="http://www.w3.org/2000/svg" viewBox="0 0 207.05 231.74" width="208px" height="232px"><defs><style>.cls-1{fill:#333;}.cls-2{fill:#98665c;}.cls-3{fill:#ee7963;}</style></defs><g id="圖層_2" data-name="圖層 2"><g id="BG"><rect class="cls-1" x="143.51" y="64.6" width="21.73" height="62.49" rx="4" transform="translate(308.75 191.69) rotate(180)"/><rect class="cls-1" x="153.49" y="48.66" width="1.78" height="92.51"/><rect class="cls-2" x="46.42" y="15.66" width="21.73" height="103.18" rx="4" transform="translate(114.58 134.49) rotate(-180)"/><rect class="cls-2" x="56.4" width="1.78" height="134.49"/><rect class="cls-3" x="97.17" y="105.3" width="21.73" height="57.05" rx="4" transform="translate(216.07 267.65) rotate(-180)"/><rect class="cls-3" x="107.15" y="87.68" width="1.78" height="92.51"/><rect class="cls-1" y="84.98" width="21.73" height="124.21" rx="4" transform="translate(21.73 294.16) rotate(-180)"/><rect class="cls-1" x="9.98" y="62.42" width="1.78" height="169.33"/><rect class="cls-2" x="185.32" y="23.42" width="21.73" height="62.49" rx="4" transform="translate(392.37 109.34) rotate(180)"/><rect class="cls-2" x="195.3" y="7.48" width="1.78" height="92.51"/></g></g></svg>