<?xml version="1.0" encoding="utf-8"?>
<!-- Generator: Adobe Illustrator 24.2.3, SVG Export Plug-In . SVG Version: 6.00 Build 0)  -->
<svg version="1.1" id="圖層_1" xmlns="http://www.w3.org/2000/svg" xmlns:xlink="http://www.w3.org/1999/xlink" x="0px" y="0px"
	 viewBox="0 0 1920 768" style="enable-background:new 0 0 1920 768;" width="1920px" height="768px" xml:space="preserve">
<style type="text/css">
	.st0{fill:#FCD597;}
	.st1{fill:#727272;}
	.st2{fill:#FFBF12;}
	.st3{fill:#FFB24D;}
	.st4{fill:#FF903E;}
	.st5{fill-rule:evenodd;clip-rule:evenodd;fill:#FFFFFF;}
	.st6{fill:#FFFFFF;}
</style>
<g id="圖層_2_1_">
	<g id="BG">
		<g>
			<path class="st0" d="M1921.7,141.4h-26.6c-0.4,0-0.8-0.2-1.1-0.5c-0.3-0.3-0.4-0.7-0.4-1.1l1.5-63.1c0-3.2-2.6-5.9-5.8-5.9
				l-103.9-0.5c-3.2,0-7.9,2.6-7.9,5.8l-0.4,180c0,0.4,1.8,0.8,1.6,1.1c-0.3,0.3-0.6,0.4-1,0.4l0,0l-20.3-0.1
				c-0.8,0-1.5-0.7-1.5-1.5l-0.2-97.5c0-3.2-2.6-5.8-5.8-5.8l-133.2-0.2c-0.4,0-0.8-0.2-1.1-0.4c-0.3-0.3-0.4-0.7-0.4-1.1l0.2-64.9
				c0-3.2-2.6-5.9-5.8-5.9l0,0l-36.8-0.2c-0.8,0-1.5-0.7-1.5-1.5l0,0l0.2-41.7c0-3.2-2.6-5.9-5.8-5.9l0,0c-1.6,0-4,0.6-5.2,1.7
				c-1.1,1.1-2.7,2.6-2.7,4.1l-0.2,41.7c0,0.8,1.3,1.5,0.5,1.5l0,0l-51.8-0.3c-3.2,0-7.8,2.5-7.9,5.6l-2.1,53.9
				c0,0.8,0.5,1.4,0.5,1.4l-246.6-0.6l0,0c-3.1,0-7.7,2.4-7.9,5.6l-0.4,64.9c0,0.8-36.1,2.6-36.1,2.6c-0.4,0-0.8-0.2-1.1-0.4
				c-0.3-0.3-0.5-0.7-0.5-1.1l0.1-24.4l0.2-20.5c0-1.9-0.7-3.7-1.8-5.2l-32.7-47.5c-1.5-2.2-4.4-3.2-7-2.4c-3,1-7,4.3-6.8,8.1
				l1.7,21.9c0,0.8,0.4,1.5-0.4,1.5l0,0l-18,0.5c-0.8,0-1.5-0.6-1.5-1.4l0,0l-1.9-61.5c0-1.8-0.7-3.5-2-4.7
				c-1.2-1.2-2.8-1.8-4.5-1.8l-27.6,0.8c-1.8,0.1-3.5,0.9-4.6,2.3c-1,1.3-3.6,2.9-3.5,4.6l0.9,39.5c0,0.8-21.1,2.1-21.1,2.1
				c-0.4,0-0.8-0.1-1.1-0.4c-0.3-0.3-0.4-0.6-0.5-1l-1.5-50.3c0-1-0.4-1.9-1.1-2.5c-0.7-0.7-1.6-1-2.6-1l-30.2,0.9
				c-2,0.1-4.6,1.7-4.5,3.7l0,0l0.6,18.7c0,0.5-0.5,1.7-1,1.5c-2-0.7-4.2-0.4-5.8,0.9c-0.1,0.1-0.3,0.2-0.4,0.2
				c-19.6,7.2-70.6,26.2-72.6,27.2c-2.3,1.2-4.7,3.7-4.6,6.3l1.4,44.5c0,0.4,0,1.5-0.4,1.6l-7.3,0.2c-1.8,0.1-4.5,0.9-5.6,2.3
				c-1,1.3-1.6,2.9-1.5,4.6l0.5,37.6c0,0.8,0.4,1.5-0.5,1.5l-59,1.1c-5.6,0.1-11.1,4.7-11.1,10.3v74.1c0,0.4,0.8,0.8,0.6,1.1
				c-0.3,0.3-0.7,0.4-1.1,0.4l-97.6-0.7c-0.8,0-1.5-0.7-1.5-1.5l0,0l0.8-172c0-3.2-2.6-5.9-5.8-5.9l-291.7-0.2l0,0
				c-3.2,0-5.8,2.6-5.9,5.8l-0.8,121.5c0,0.8-0.7,1.5-1.5,1.5l0,0L317,255.2c-0.4,0-0.8-0.2-1.1-0.4c-0.3-0.3-0.4-0.7-0.4-1.1
				L316.7,91c0-1.7-0.7-3.3-2-4.4c-1.2-1-2.6-1.5-4.1-1.4l-48.8-0.1c-0.8,0-1.5-0.7-1.5-1.5l0,0v-11c0-3.2-2.6-5.9-5.8-5.9l0,0H246
				c-0.8,0-1.5-0.7-1.5-1.5l0.4-51.6c0-1.7-0.7-3.3-2-4.4c-1.1-1-2.6-1.6-4.1-1.6h-5.4l0,0c-3.2,0-5.9,2.6-5.9,5.8l0,0L227.3,65
				c0,0.4-0.2,0.8-0.4,1.1c-0.3,0.3-0.7,0.4-1,0.4l0,0h-7.1c-1.7,0-3.3,0.7-4.4,2c-1,1.1-1.5,2.6-1.5,4.1v11c0,0.8-0.7,1.5-1.5,1.5
				L86.7,85.8c-3.1,0.1-5.6,2.7-5.6,5.8l-0.2,47.1c0,0.8-0.7,1.5-1.5,1.5H-1v708.5l1922.7-5.5V141.4z"/>
		</g>
		<g>
			<polygon class="st1" points="1921.7,846 1921.7,844.5 -1,850 -1,851.5 			"/>
		</g>
		<g>
			<polygon class="st1" points="1921.7,844.5 1921.7,843.1 -1,848.5 -1,850 			"/>
		</g>
		<g>
			<path class="st1" d="M1896.5,138.4l1.4-61.6c0-4.9-3.9-8.9-8.8-8.9l-103.8-0.4c-4.9,0-8.8,4-8.9,8.9l-0.4,178.5l-17.3-0.1
				l-0.2-96c0-4.9-4-8.8-8.8-8.8l-131.7-0.2l0.2-63.4c0-4.9-3.9-8.9-8.8-8.9l-35.3-0.2l0.2-40.2c0-4.9-3.9-8.9-8.8-8.9h-0.1
				c-4.9,0-8.8,4-8.9,8.8l-0.2,40.2l-50.4-0.2h-0.1c-4.8,0-8.7,3.8-8.9,8.5l-2,52.4l-245.1-0.6c-4.7,0-8.6,3.7-8.9,8.5l-0.4,63.5
				l-33.6,1v-23l0.2-20.5c0-2.5-0.9-4.9-2.3-7l-32.7-47.5c-2.3-3.4-6.6-4.8-10.4-3.5c-4.3,1.5-7,5.9-6.8,11.1l0.6,20.4l-15,0.4
				l-1.7-59.8c-0.1-2.5-1.1-5-2.9-6.7c-1.8-1.8-4.2-2.7-6.7-2.7l-27.6,0.8c-2.7,0.1-5.1,1.4-6.8,3.4c-1.5,1.9-2.2,4.2-2.2,6.5
				l0.9,38l-18.6,0.5l-1.5-48.6c-0.1-3.7-3.2-6.5-6.8-6.4l-30.2,0.9c-3.7,0.1-6.5,3.2-6.4,6.8l0.5,16.7c-2.3-0.3-4.6,0.3-6.5,1.7
				c-5,1.8-70.1,25.9-72.6,27.3c-3.4,1.7-5.4,5.3-5.3,9.1l1.3,43l-5.8,0.2c-2.7,0.1-5.2,1.3-6.8,3.4c-1.5,1.9-2.2,4.2-2.2,6.5
				l0.5,36.1l-57.8,1.1c-7.3,0.2-13,6.1-13.1,13.3v72.5l-94.6-0.6l0.7-170.6c0-4.9-3.9-8.9-8.8-8.9l-291.2-0.6h-0.1
				c-4.9,0-8.8,3.9-8.9,8.8l-0.6,120l-140.6-0.1l1.6-160.9c0-2.6-1.1-5-3-6.7c-1.7-1.5-3.8-2.3-6.1-2.3L263,82.2v-9.7
				c0-4.9-3.9-8.9-8.8-8.9h-7l0.4-50.1c0-2.6-1.1-5-3-6.7c-1.7-1.5-3.9-2.3-6.1-2.3h-5.4c-4.9,0.1-8.9,4-8.9,8.9L224,63.6h-5
				c-2.5,0-4.9,1.1-6.6,3c-1.5,1.7-2.3,3.9-2.2,6.1v9.6L86.7,82.8c-4.8,0.2-8.6,4.1-8.6,8.8l-0.2,45.6H-1v1.5v1.5h80.4
				c0.8,0,1.5-0.7,1.5-1.5l0.2-47.1c0-3.1,2.5-5.7,5.6-5.8l124.7-0.7c0.8,0,1.5-0.7,1.5-1.5v-11c0-1.5,0.5-3,1.5-4.1
				c1.1-1.3,2.7-2,4.4-2h7.1c0.4,0,0.8-0.2,1-0.4c0.3-0.3,0.4-0.7,0.4-1.1l0.2-51.5c0-3.2,2.7-5.9,5.9-5.8h5.4c1.5,0,3,0.5,4.1,1.5
				c1.3,1.1,2,2.7,2,4.4l-0.2,51.7c0,0.8,0.7,1.5,1.5,1.5h8.6c3.2,0,5.9,2.7,5.8,5.9v11.2c0,0.8,0.6,1.5,1.4,1.6c0,0,0,0,0.1,0
				l49.1,0.2c1.5,0,3,0.5,4.1,1.5c1.3,1.1,2,2.7,2,4.4L316,254.3c0,0.4,0.2,0.8,0.4,1.1c0.3,0.3,0.7,0.4,1.1,0.4l143.5,0.1
				c0.8,0,1.5-0.7,1.5-1.5l0.8-121.5c0-3.2,2.6-5.8,5.9-5.8l291.2,0.6c3.2,0,5.8,2.7,5.8,5.9l-0.9,171.9c0,0.8,0.7,1.5,1.5,1.5
				l97.6,0.7c0.4,0,0.8-0.2,1.1-0.4c0.3-0.3,0.4-0.7,0.4-1.1v-74.1c0-5.6,4.5-10.2,10.2-10.3l59.3-1.1c0.8,0,1.5-0.7,1.5-1.5
				l-0.5-37.6c-0.1-1.7,0.5-3.3,1.5-4.6c1.1-1.4,2.8-2.3,4.6-2.3l7.3-0.2c0.4,0,0.7-0.2,1-0.5s0.4-0.7,0.4-1.1l-1.4-44.5
				c-0.1-2.6,1.3-5.1,3.6-6.3c2.1-1,53.1-20.1,72.6-27.2c0.1-0.1,0.3-0.1,0.4-0.2c1.7-1.3,3.9-1.6,5.8-0.9c0.5,0.2,1,0.1,1.4-0.2
				c0.4-0.3,0.7-0.7,0.7-1.2l-0.6-18.6c-0.1-2,1.5-3.7,3.5-3.8l30.2-0.9c1,0,1.9,0.3,2.6,1s1.1,1.6,1.1,2.5l1.5,50.3
				c0,0.4,0.2,0.7,0.5,1s0.7,0.4,1.1,0.4l21.6-0.6c0.8,0,1.5-0.7,1.5-1.5l-0.9-39.5c-0.1-1.7,0.5-3.3,1.5-4.6
				c1.1-1.4,2.8-2.3,4.6-2.3l27.6-0.8c1.7,0,3.3,0.6,4.5,1.8c1.2,1.3,2,2.9,2,4.7l1.9,61.5c0,0.8,0.7,1.5,1.5,1.5l18-0.5
				c0.8,0,1.5-0.7,1.4-1.5l-0.7-21.9c-0.1-3.8,1.8-7.1,4.8-8.1c2.6-0.8,5.4,0.1,7,2.4l32.7,47.5c1.1,1.5,1.7,3.4,1.8,5.2l-0.2,20.5
				l-0.1,24.4c0,0.4,0.2,0.8,0.5,1.1s0.7,0.4,1.1,0.4l36.6-1.1c0.8,0,1.5-0.7,1.5-1.5l0.4-64.9c0.2-3.1,2.7-5.6,5.9-5.6l246.6,0.6
				c0.8,0,1.5-0.6,1.5-1.4l2.1-53.9c0.1-3.2,2.7-5.7,5.9-5.6l51.8,0.2c0.8,0,1.5-0.7,1.5-1.5l0.2-41.7c0-1.6,0.6-3.1,1.7-4.1
				c1.1-1.1,2.6-1.7,4.2-1.7c3.2,0,5.9,2.7,5.8,5.9l-0.2,41.7c0,0.8,0.7,1.5,1.5,1.5l36.8,0.2c3.2,0,5.9,2.6,5.8,5.9l-0.2,64.9
				c0,0.4,0.2,0.8,0.4,1.1c0.3,0.3,0.7,0.4,1.1,0.4l133.2,0.2c3.2,0,5.8,2.6,5.8,5.8l0.2,97.5c0,0.8,0.7,1.5,1.5,1.5l20.3,0.1
				c0.4,0,0.7-0.2,1-0.4c0.3-0.3,0.4-0.7,0.4-1.1l0.4-180c0-3.2,2.6-5.9,5.9-5.9l103.9,0.5c3.2,0,5.8,2.6,5.8,5.9l-1.4,63.1
				c0.3-0.2,0.5,0.2,0.8,0.4c0.3,0.3,0.7,0.5,1.1,0.5h26.6V140v-1.5L1896.5,138.4L1896.5,138.4z M313.3,84.2c-0.1,0-0.3-0.1-0.4-0.1
				C313,84.1,313.2,84.1,313.3,84.2z M312.3,84c-0.4,0-0.7-0.1-1.1-0.1C311.6,83.9,312,83.9,312.3,84z M239.1,6.2h-5.4
				c-4.1,0-7.4,3.3-7.4,7.3l-0.2,51.6H219c-2.1,0-4.1,0.9-5.5,2.5c-1.2,1.4-1.9,3.2-1.9,5.1v11.1L86.7,84.5c-3.1,0.1-5.8,2.1-6.8,5
				c0.9-3,3.6-5.1,6.8-5.2l124.7-0.7V72.5c0-1.9,0.6-3.7,1.9-5.1c1.4-1.6,3.4-2.5,5.5-2.5h7.1l0.2-51.6c0-4.1,3.3-7.3,7.4-7.3h5.4
				c1.9,0,3.7,0.6,5.1,1.9c0.2,0.2,0.4,0.4,0.6,0.6c-0.1-0.1-0.3-0.3-0.4-0.4C242.8,6.9,241,6.2,239.1,6.2z M1025.7,93.1
				c0,0-0.1,0-0.3,0.1c0.4-0.3,0.8-0.5,1.2-0.7C1026.3,92.7,1026,92.9,1025.7,93.1z"/>
		</g>
		<g>
			<path class="st2" d="M157.1,121.1c-1.1,0-2-0.9-2-2l-0.2-12.2c0-1.1,0.9-2,2-2s2,0.9,2,2l0.2,12.2
				C159.1,120.2,158.2,121.1,157.1,121.1L157.1,121.1z"/>
		</g>
		<g>
			<path class="st2" d="M168.6,121.5c-1.1,0-2-0.9-2-2l-0.2-12.2c0-1.1,0.9-2,2-2s2,0.9,2,2l0.2,12.2
				C170.6,120.6,169.7,121.5,168.6,121.5L168.6,121.5z"/>
		</g>
		<g>
			<path class="st2" d="M180.3,121.6c-1.1,0-2-0.9-2-2l-0.2-12.2c0-1.1,0.8-2,1.9-2c0,0,0,0,0.1,0l0,0c1.1,0,2,0.9,2,2l0.2,12.2
				C182.3,120.7,181.4,121.6,180.3,121.6L180.3,121.6z"/>
		</g>
		<g>
			<path class="st2" d="M191.8,122c-1.1,0-2-0.9-2-2l-0.2-12.2c0-1.1,0.9-2,2-2l0,0c1.1,0,2,0.9,2,2l0.2,12.2
				C193.8,121.2,192.9,122,191.8,122L191.8,122z"/>
		</g>
		<g>
			<path class="st2" d="M134.7,144.7c-1.1,0-2-0.9-2-2l-0.2-12.2c0-1.1,0.9-2,2-2s2,0.9,2,2l0.2,12.2
				C136.6,143.8,135.8,144.7,134.7,144.7L134.7,144.7z"/>
		</g>
		<g>
			<path class="st2" d="M146.2,145.1c-1.1,0-2-0.9-2-2L144,131c0-1.1,0.8-2,1.9-2c0,0,0,0,0.1,0l0,0c1.1,0,2,0.9,2,2l0.2,12.2
				C148.2,144.2,147.3,145.1,146.2,145.1L146.2,145.1L146.2,145.1z"/>
		</g>
		<g>
			<path class="st2" d="M157.7,145.2c-1.1,0-2-0.9-2-2l-0.2-12.2c0-1.1,0.9-2,2-2l0,0c1.1,0,2,0.9,2,2l0.2,12.2
				C159.7,144.3,158.8,145.2,157.7,145.2C157.7,145.3,157.7,145.3,157.7,145.2L157.7,145.2z"/>
		</g>
		<g>
			<path class="st2" d="M169.2,145.6c-1.1,0-2-0.9-2-2l-0.2-12.2c0-1.1,0.9-2,2-2s2,0.9,2,2l0.2,12.2
				C171.2,144.6,170.4,145.5,169.2,145.6L169.2,145.6L169.2,145.6z"/>
		</g>
		<g>
			<polyline class="st2" points="239.4,109.2 265.1,109.2 265.1,147.9 239.4,147.9 			"/>
		</g>
		<g>
			<polyline class="st2" points="295.5,147.9 269.5,147.9 269.5,109.2 295.5,109.2 			"/>
		</g>
		<g>
			<polyline class="st2" points="239.4,153.1 265.1,153.1 265.1,191.9 239.4,191.9 			"/>
		</g>
		<g>
			<polyline class="st2" points="295.5,191.9 269.5,191.9 269.5,153.1 295.5,153.1 			"/>
		</g>
		<g>
			<polyline class="st2" points="688.3,150.5 714.3,150.5 714.3,189.3 688.3,189.3 			"/>
		</g>
		<g>
			<polyline class="st2" points="744.4,189.3 718.7,189.3 718.7,150.5 744.4,150.5 			"/>
		</g>
		<g>
			<polyline class="st2" points="688.3,194.5 714.3,194.5 714.3,233.3 688.3,233.3 			"/>
		</g>
		<g>
			<polyline class="st2" points="744.4,233.3 718.7,233.3 718.7,194.5 744.4,194.5 			"/>
		</g>
		<g>
			<path class="st2" d="M27.4,170.2c-1.1,0-2-0.9-2-2L25.2,156c0-1.1,0.8-2,1.9-2c0,0,0,0,0.1,0c1.1,0,2,0.8,2,1.9c0,0,0,0,0,0.1
				l0.2,12.2C29.4,169.3,28.5,170.2,27.4,170.2L27.4,170.2z"/>
		</g>
		<g>
			<path class="st2" d="M38.9,170.7c-1.1,0-2-0.9-2-2l-0.2-12.2c0-1.1,0.9-2,2-2s2,0.9,2,2l0.2,12.2C40.9,169.7,40,170.6,38.9,170.7
				L38.9,170.7z"/>
		</g>
		<g>
			<path class="st2" d="M50.6,170.7c-1.1,0-2-0.9-2-2l-0.2-12.2c0-1.1,0.8-2,1.9-2c0,0,0,0,0.1,0l0,0c1.1,0,2,0.9,2,2l0.2,12.2
				C52.5,169.8,51.7,170.7,50.6,170.7L50.6,170.7z"/>
		</g>
		<g>
			<path class="st2" d="M61.9,171.1c-1.1,0-2-0.9-2-2l-0.2-12.2c0-1.1,0.9-2,2-2l0,0c1.1,0,2,0.9,2,2l0.2,12.2
				C63.9,170.2,63,171.1,61.9,171.1L61.9,171.1z"/>
		</g>
		<g>
			<path class="st2" d="M892.7,301.9c-1.1,0-2-0.9-2-2l-0.3-12.2c0-1.1,0.8-2,1.9-2.1c0,0,0,0,0.1,0l0,0c1.1,0,2,0.9,2,2l0.2,12.2
				C894.8,301,893.9,301.9,892.7,301.9C892.8,301.9,892.8,301.9,892.7,301.9L892.7,301.9z"/>
		</g>
		<g>
			<path class="st2" d="M904.3,302.2c-1.1,0-2-0.9-2-2L902,288c0-1.1,0.8-2,1.9-2.1c0,0,0,0,0.1,0l0,0c1.1,0,2,0.9,2,2l0.3,12.2
				C906.3,301.3,905.4,302.2,904.3,302.2C904.3,302.3,904.3,302.3,904.3,302.2L904.3,302.2z"/>
		</g>
		<g>
			<path class="st2" d="M882.6,301.5c-1.1,0-2-0.9-2-2l-0.3-12.2c0-1.1,0.8-2,1.9-2.1c0,0,0,0,0.1,0l0,0c1.1,0,2,0.9,2,2l0.2,12.2
				C884.6,300.6,883.7,301.5,882.6,301.5L882.6,301.5L882.6,301.5z"/>
		</g>
		<g>
			<path class="st2" d="M887.6,322.8c-1.1,0-2-0.9-2-2l-0.2-12.2c0-1.1,0.8-2,1.9-2.1c0,0,0,0,0.1,0l0,0c1.1,0,2,0.9,2,2l0.3,12.2
				C889.7,321.8,888.8,322.7,887.6,322.8C887.7,322.8,887.7,322.8,887.6,322.8L887.6,322.8z"/>
		</g>
		<g>
			<path class="st2" d="M899.1,323.1c-1.1,0-2-0.9-2-2l-0.3-12.2c0-1.1,0.8-2,1.9-2.1c0,0,0,0,0.1,0l0,0c1.1,0,2,0.9,2,2l0.3,12.2
				C901.2,322.1,900.3,323,899.1,323.1C899.2,323.1,899.2,323.1,899.1,323.1L899.1,323.1z"/>
		</g>
		<g>
			<polyline class="st2" points="1819.1,94.5 1845,94.5 1845,133.2 1819.1,133.2 			"/>
		</g>
		<g>
			<polyline class="st2" points="1875.2,133.2 1849.4,133.2 1849.4,94.5 1875.2,94.5 			"/>
		</g>
		<g>
			<polyline class="st2" points="1819.1,138.2 1845,138.2 1845,177.1 1819.1,177.1 			"/>
		</g>
		<g>
			<polyline class="st2" points="1875.2,177.1 1849.4,177.1 1849.4,138.2 1875.2,138.2 			"/>
		</g>
		<g>
			<path class="st2" d="M440.2,284.8L440.2,284.8c-1.2,0-2-0.9-2-2c0,0,0,0,0-0.1l0.3-12.2c0-1.1,0.9-2,2.1-1.9c1.1,0,2,0.9,1.9,2.1
				l-0.3,12.2C442.2,283.9,441.3,284.8,440.2,284.8z"/>
		</g>
		<g>
			<path class="st2" d="M451.7,285.7L451.7,285.7c-1.2,0-2.1-0.9-2.1-2c0,0,0,0,0-0.1l0.3-12.2c0-1.1,0.9-2,2.1-1.9
				c1.1,0,2,0.9,1.9,2.1l-0.3,12.2C453.6,284.8,452.8,285.6,451.7,285.7z"/>
		</g>
		<g>
			<path class="st2" d="M428.7,284.9L428.7,284.9c-1.2,0-2-0.9-2-2c0,0,0,0,0-0.1l0.3-12.2c0-1.1,0.9-2,2.1-1.9c1.1,0,2,0.9,1.9,2.1
				l-0.3,12.2C430.7,284,429.8,284.9,428.7,284.9z"/>
		</g>
		<g>
			<path class="st3" d="M1216.2,318.3c0-3.2-2.6-5.8-5.8-5.9l-100.7-0.2v-8.7c0-1.5-0.5-2.9-1.4-4.1c-1.2-1.3-2.9-2.1-4.6-2h-5.9
				l-0.2-41.9c0-3.3-2.7-5.9-6-5.9h-4.7c-3.3-0.1-6,2.6-6.1,5.9v0.1l0.2,41.8h-7.2c-3.3,0-6,2.7-6,6v9l-39.7,0.2
				c-1.2,0-2.5,0.3-3.5,1c-1.6,1.1-2.6,3-2.6,4.9l0.2,35.7H726.7c-2.9,0-5.3,2.4-5.3,5.3c0,0-2.5,28.9-3.5,27.6
				c-1.1-1.4-2.8-2.3-4.6-2.4l-6-0.2l1.1-36.3c0.1-2.6-1.3-5.1-3.6-6.3c-2.1-1.1-4.6-0.8-6.5,0.7l-23.7,18.7
				c-0.4-2.9-2.6-5.3-5.6-5.6l0.4-14c0.1-2.2-0.9-4.3-2.5-5.6l-21.3-16.7c-1.7-1.3-3.9-1.7-5.9-0.9l0.5-15.2c0.1-2.3-1.7-4.2-4-4.3
				l-24.5-0.8c-1.1,0-2.2,0.4-3,1.1c-0.8,0.8-1.3,1.8-1.3,2.9l-1.2,41.1h-0.1l-17.4-0.5l0.7-32.3c0.1-1.6-0.5-3.3-1.5-4.6
				c-1.1-1.4-2.8-2.3-4.6-2.3l-22.5-0.7c-3.6,0-6.5,3-6.5,6.6c0,0,0,0,0,0.1l-1.5,50.3l-14.6-0.5l0.5-17.9l0,0
				c0.1-3.7-1.8-6.8-4.7-7.8c-2.6-0.9-5.5,0.1-7.1,2.4l-28.4,38.7c-1,1.5-1.6,3.2-1.7,5l-0.5,16.8l-0.6,20l-26.4-0.9l-0.3-6.4
				c-0.2-3.2-2.8-5.7-6-5.7l-77.5,0.5l-1.7-43.5c-0.1-3.2-2.8-5.8-6-5.7l-41.6,0.2l-0.2-33.7c0-3.3-2.7-5.9-5.9-5.9
				c-3.3,0-5.9,2.7-5.9,5.9l0,0l0.2,33.4l-30,0.1c-3.3,0-6,2.7-6,6l0.1,29.7l-32.9,0.1c-3.3,0-6,2.7-6.1,6l-0.1,32.7l-16.8,0.1
				l-0.3-142.3c0-3.3-2.7-5.9-6-5.9l-84.2,0.4c-3.3,0-6,2.7-6,6l0.4,82.2H58.6V350c0-4-3.2-7.2-7.2-7.2H-1v498.3h1218.3
				L1216.2,318.3z"/>
		</g>
		<g>
			<path class="st4" d="M242.9,455c-0.8,0-1.4-0.6-1.4-1.3l-0.3-9.9c0-0.8,0.6-1.4,1.3-1.4l0,0c0.8,0,1.4,0.6,1.4,1.4l0.3,9.9
				C244.3,454.4,243.7,455,242.9,455L242.9,455L242.9,455z"/>
		</g>
		<g>
			<path class="st4" d="M233.6,455.7c-0.8,0-1.4-0.6-1.4-1.3l-0.3-9.9c0-0.8,0.6-1.4,1.3-1.4l0,0l0,0c0.8,0,1.4,0.6,1.4,1.4l0.3,9.9
				C235,455.1,234.4,455.7,233.6,455.7L233.6,455.7L233.6,455.7z"/>
		</g>
		<g>
			<path class="st4" d="M252.2,455.1c-0.8,0-1.4-0.6-1.4-1.3l-0.3-9.9c-0.1-0.8,0.5-1.5,1.2-1.5s1.5,0.5,1.5,1.2c0,0.1,0,0.2,0,0.2
				l0.3,9.9C253.6,454.4,253,455.1,252.2,455.1L252.2,455.1z"/>
		</g>
		<g>
			<path class="st4" d="M113.7,398.9L113.7,398.9c-0.8,0-1.4-0.6-1.4-1.4c0,0,0,0,0-0.1l0.2-10.1c0-0.8,0.6-1.4,1.4-1.4l0,0l0,0
				c0.8,0,1.4,0.6,1.4,1.4l0,0l-0.2,10.1C115.1,398.3,114.4,398.9,113.7,398.9L113.7,398.9z"/>
		</g>
		<g>
			<path class="st4" d="M103.9,398.9L103.9,398.9c-0.8,0-1.4-0.6-1.4-1.4l0.2-9.9c0-0.8,0.6-1.4,1.4-1.4l0,0c0.8,0,1.4,0.6,1.4,1.4
				l-0.2,9.9C105.1,398.3,104.5,398.9,103.9,398.9L103.9,398.9z"/>
		</g>
		<g>
			<path class="st4" d="M94.9,398.9L94.9,398.9c-0.8,0-1.4-0.6-1.4-1.4l0.2-9.9c0-0.8,0.7-1.4,1.4-1.4c0.8,0,1.4,0.7,1.4,1.4
				l-0.2,9.9C96.3,398.3,95.7,398.9,94.9,398.9L94.9,398.9z"/>
		</g>
		<g>
			<path class="st4" d="M84.9,398.9L84.9,398.9c-0.8,0-1.4-0.6-1.4-1.4l0,0l0.2-9.9c0-0.8,0.7-1.4,1.4-1.4c0.8,0,1.4,0.7,1.4,1.4
				l-0.2,9.9C86.3,398.3,85.7,398.9,84.9,398.9L84.9,398.9z"/>
		</g>
		<g>
			<path class="st4" d="M104.7,415.8L104.7,415.8c-0.8,0-1.4-0.6-1.4-1.4c0,0,0,0,0-0.1l0.2-10.1c0-0.8,0.6-1.4,1.4-1.4l0,0l0,0
				c0.8,0,1.4,0.7,1.4,1.4l0,0l-0.2,10.1C106.1,415.1,105.5,415.8,104.7,415.8L104.7,415.8z"/>
		</g>
		<g>
			<path class="st4" d="M95.9,415.8L95.9,415.8c-0.8,0-1.4-0.6-1.4-1.4l0,0l0.2-9.9c0-0.8,0.7-1.4,1.4-1.4c0.8,0,1.4,0.7,1.4,1.4
				l-0.2,9.9C97.3,415.2,96.7,415.8,95.9,415.8L95.9,415.8z"/>
		</g>
		<g>
			<path class="st4" d="M85.9,415.8L85.9,415.8c-0.8,0-1.4-0.6-1.4-1.4l0.2-9.9c0-0.8,0.7-1.4,1.4-1.4l0,0c0.8,0,1.4,0.6,1.4,1.4
				l0,0l-0.2,9.9C87.3,415.2,86.7,415.8,85.9,415.8L85.9,415.8z"/>
		</g>
		<g>
			<path class="st4" d="M76.9,415.8L76.9,415.8c-0.8,0-1.4-0.6-1.4-1.4l0.2-9.9c0-0.8,0.7-1.4,1.4-1.4c0.8,0,1.4,0.7,1.4,1.4
				l-0.2,9.9C78.4,415.2,77.7,415.8,76.9,415.8L76.9,415.8z"/>
		</g>
		<g>
			<polyline class="st4" points="219.7,305.5 198.9,305.5 198.9,336.2 219.7,336.2 			"/>
		</g>
		<g>
			<polyline class="st4" points="173.9,336.2 194.9,336.2 194.9,305.5 173.9,305.5 			"/>
		</g>
		<g>
			<polyline class="st4" points="219.7,340.1 198.9,340.1 198.9,371 219.7,371 			"/>
		</g>
		<g>
			<polyline class="st4" points="173.9,371 194.9,371 194.9,340.1 173.9,340.1 			"/>
		</g>
		<g>
			<polyline class="st4" points="792.5,389.9 773.6,389.9 773.6,418.8 792.5,418.8 			"/>
		</g>
		<g>
			<polyline class="st4" points="751.8,418.8 770.6,418.8 770.6,389.9 751.8,389.9 			"/>
		</g>
		<g>
			<polyline class="st4" points="792.5,421.8 773.6,421.8 773.6,450.6 792.5,450.6 			"/>
		</g>
		<g>
			<polyline class="st4" points="751.8,450.6 770.6,450.6 770.6,421.8 751.8,421.8 			"/>
		</g>
		<g>
			<path class="st4" d="M643.6,357.1L643.6,357.1c-0.8,0-1.4-0.6-1.4-1.4l0.2-10.2c0-0.8,0.6-1.4,1.4-1.4h0.1c0.8,0,1.4,0.6,1.4,1.4
				l0,0l-0.2,10.2C645,356.5,644.3,357.1,643.6,357.1z"/>
		</g>
		<g>
			<path class="st4" d="M634.2,357.1L634.2,357.1c-0.8,0-1.4-0.7-1.4-1.4l0.2-9.9c0-0.8,0.6-1.4,1.4-1.4c0.1,0,0.2,0,0.3,0
				c0.7,0.2,1.1,0.8,1.1,1.5l-0.2,9.8C635.6,356.5,635,357.1,634.2,357.1L634.2,357.1z"/>
		</g>
		<g>
			<path class="st4" d="M651.8,357.1L651.8,357.1c-0.8,0-1.4-0.7-1.4-1.4l0,0l0.2-10.2c0-0.8,0.6-1.4,1.4-1.4h0.1
				c0.8,0,1.4,0.6,1.4,1.4l0,0l-0.2,10.2C653.2,356.5,652.6,357.1,651.8,357.1z"/>
		</g>
		<g>
			<polyline class="st4" points="866.1,389.9 847.3,389.9 847.3,418.8 866.1,418.8 			"/>
		</g>
		<g>
			<polyline class="st4" points="825.3,418.8 844.3,418.8 844.3,389.9 825.3,389.9 			"/>
		</g>
		<g>
			<polyline class="st4" points="866.1,421.8 847.3,421.8 847.3,450.6 866.1,450.6 			"/>
		</g>
		<g>
			<polyline class="st4" points="825.3,450.6 844.3,450.6 844.3,421.8 825.3,421.8 			"/>
		</g>
		<g>
			<polyline class="st4" points="939.8,389.9 920.8,389.9 920.8,418.8 939.8,418.8 			"/>
		</g>
		<g>
			<polyline class="st4" points="898,418.8 916.9,418.8 916.9,389.9 898,389.9 			"/>
		</g>
		<g>
			<polyline class="st4" points="939.8,421.8 920.8,421.8 920.8,450.6 939.8,450.6 			"/>
		</g>
		<g>
			<polyline class="st4" points="898,450.6 916.9,450.6 916.9,421.8 898,421.8 			"/>
		</g>
		<g>
			<polyline class="st4" points="1012.4,389.9 993.4,389.9 993.4,418.8 1012.4,418.8 			"/>
		</g>
		<g>
			<polyline class="st4" points="971.4,418.8 990.4,418.8 990.4,389.9 971.4,389.9 			"/>
		</g>
		<g>
			<polyline class="st4" points="1012.4,421.8 993.4,421.8 993.4,450.6 1012.4,450.6 			"/>
		</g>
		<g>
			<polyline class="st4" points="971.4,450.6 990.4,450.6 990.4,421.8 971.4,421.8 			"/>
		</g>
		<g>
			<path class="st4" d="M1080.3,343.1L1080.3,343.1c-0.8,0-1.4-0.6-1.4-1.4c0,0,0,0,0-0.1l0.2-10.1c0-0.8,0.6-1.4,1.4-1.4l0,0l0,0
				c0.8,0,1.4,0.6,1.4,1.4l0,0l-0.2,10.1C1081.8,342.5,1081.1,343.1,1080.3,343.1L1080.3,343.1z"/>
		</g>
		<g>
			<path class="st4" d="M1071.4,343.1L1071.4,343.1c-0.8,0-1.4-0.6-1.4-1.4l0.2-9.9c0-0.8,0.6-1.4,1.4-1.4l0,0
				c0.8,0,1.4,0.6,1.4,1.4l-0.2,9.9C1072.8,342.5,1072.1,343.1,1071.4,343.1L1071.4,343.1z"/>
		</g>
		<g>
			<path class="st4" d="M1061.5,343.1L1061.5,343.1c-0.8,0-1.4-0.6-1.4-1.4l0.2-9.9c0-0.8,0.7-1.4,1.4-1.4c0.8,0,1.4,0.7,1.4,1.4
				l-0.2,9.9C1062.9,342.5,1062.3,343.1,1061.5,343.1L1061.5,343.1z"/>
		</g>
		<g>
			<path class="st4" d="M1052.6,343.1L1052.6,343.1c-0.8,0-1.4-0.6-1.4-1.4l0,0l0.2-9.9c0-0.8,0.7-1.4,1.4-1.4
				c0.8,0,1.4,0.7,1.4,1.4l-0.2,9.9C1054,342.5,1053.4,343.1,1052.6,343.1L1052.6,343.1z"/>
		</g>
		<g>
			<path class="st4" d="M1072.4,359.1L1072.4,359.1c-0.8,0-1.4-0.6-1.4-1.4c0,0,0,0,0-0.1l0.2-10.1c0-0.8,0.6-1.4,1.4-1.4l0,0l0,0
				c0.8,0,1.4,0.7,1.4,1.4l0,0l-0.2,10.1C1073.8,358.4,1073.1,359.1,1072.4,359.1L1072.4,359.1z"/>
		</g>
		<g>
			<path class="st4" d="M1062.5,359.1L1062.5,359.1c-0.8,0-1.4-0.6-1.4-1.4l0,0l0.2-9.9c0-0.8,0.7-1.4,1.4-1.4
				c0.7,0,1.4,0.7,1.4,1.4l-0.2,9.9C1063.8,358.5,1063.3,359.1,1062.5,359.1L1062.5,359.1z"/>
		</g>
		<g>
			<path class="st4" d="M1053.6,360.1L1053.6,360.1c-0.8,0-1.4-0.6-1.4-1.4l0.2-9.9c0-0.8,0.7-1.4,1.4-1.4l0,0
				c0.8,0,1.4,0.6,1.4,1.4l0,0l-0.2,9.9C1055,359.5,1054.4,360.1,1053.6,360.1L1053.6,360.1z"/>
		</g>
		<g>
			<path class="st4" d="M1043.6,360.1L1043.6,360.1c-0.8,0-1.4-0.6-1.4-1.4l0.2-9.9c0-0.8,0.7-1.4,1.4-1.4c0.7,0,1.4,0.7,1.4,1.4
				l-0.2,9.9C1045,359.5,1044.4,360.1,1043.6,360.1L1043.6,360.1z"/>
		</g>
		<g>
			<path class="st4" d="M554.3,401.9L554.3,401.9c-0.8,0-1.4-0.6-1.4-1.4c0,0,0,0,0-0.1l0.2-10.1c0-0.8,0.6-1.4,1.4-1.4l0,0l0,0
				c0.8,0,1.4,0.6,1.4,1.4l0,0l-0.2,10.1C555.7,401.2,555.1,401.9,554.3,401.9L554.3,401.9z"/>
		</g>
		<g>
			<path class="st4" d="M545.3,401.9L545.3,401.9c-0.8,0-1.4-0.6-1.4-1.4l0.2-9.9c0-0.8,0.6-1.4,1.4-1.4l0,0c0.8,0,1.4,0.6,1.4,1.4
				l-0.2,9.9C546.7,401.3,546.1,401.9,545.3,401.9L545.3,401.9z"/>
		</g>
		<g>
			<path class="st4" d="M536.3,401.9L536.3,401.9c-0.8,0-1.4-0.6-1.4-1.4l0.2-9.9c0-0.8,0.7-1.4,1.4-1.4s1.4,0.7,1.4,1.4l-0.2,9.9
				C537.7,401.3,537.1,401.9,536.3,401.9L536.3,401.9z"/>
		</g>
		<g>
			<path class="st4" d="M526.5,401.9L526.5,401.9c-0.8,0-1.4-0.6-1.4-1.4l0,0l0.2-9.9c0-0.8,0.7-1.4,1.4-1.4s1.4,0.7,1.4,1.4
				l-0.2,9.9C528,401.3,527.3,401.9,526.5,401.9C526.6,401.9,526.5,401.9,526.5,401.9z"/>
		</g>
		<g>
			<path class="st4" d="M546.3,417.8L546.3,417.8c-0.8,0-1.4-0.6-1.4-1.4c0,0,0,0,0-0.1l0.2-10.1c0-0.8,0.6-1.4,1.4-1.4l0,0l0,0
				c0.8,0,1.4,0.7,1.4,1.4l0,0l-0.2,10.1C547.7,417.1,547.1,417.8,546.3,417.8L546.3,417.8z"/>
		</g>
		<g>
			<path class="st4" d="M537.3,418.8L537.3,418.8c-0.8,0-1.4-0.6-1.4-1.4l0,0l0.2-9.9c0-0.8,0.7-1.4,1.4-1.4c0.8,0,1.4,0.7,1.4,1.4
				l-0.2,9.9C538.7,418.2,538.1,418.8,537.3,418.8L537.3,418.8z"/>
		</g>
		<g>
			<path class="st4" d="M527.5,418.8L527.5,418.8c-0.8,0-1.4-0.6-1.4-1.4l0.2-9.9c0-0.8,0.7-1.4,1.4-1.4l0,0c0.8,0,1.4,0.6,1.4,1.4
				l0,0l-0.2,9.9C529,418.2,528.3,418.8,527.5,418.8L527.5,418.8z"/>
		</g>
		<g>
			<path class="st4" d="M518.6,418.8L518.6,418.8c-0.8,0-1.4-0.6-1.4-1.4l0.2-9.9c0-0.8,0.7-1.4,1.4-1.4c0.8,0,1.4,0.7,1.4,1.4
				l-0.2,9.9C520,418.2,519.3,418.8,518.6,418.8L518.6,418.8z"/>
		</g>
		<g>
			<path class="st1" d="M1218.2,317.8c0-4-3.2-7.3-7.3-7.4l-100.2-0.2v-7c0.1-4.1-3.1-7.6-7.2-7.7c-0.1,0-0.2,0-0.4,0l0,0h-4.3
				l-0.2-40.4c-0.1-4.1-3.4-7.4-7.6-7.4l0,0h-4.5c-1.4,0-2.8,0.4-4.1,1.1c-2.3,1.3-3.7,3.8-3.7,6.4l0.2,40.3h-4.5
				c-1.7,0-3.3,0.5-4.6,1.5c-1.9,1.4-3,3.6-3,6v7.5l-38.4,0.2c-2,0-3.9,0.8-5.3,2.2c-1.4,1.4-2.2,3.3-2.2,5.3l0.2,34.2h-294
				c-3.7,0-6.7,3-6.8,6.8c-0.7,8.5-1.9,20.4-2.7,25c-1.2-0.7-2.5-1.2-3.9-1.2l-4.5-0.1l1.1-34.8c0.1-3.2-1.6-6.2-4.4-7.7
				c-2.6-1.3-5.8-1-8.1,0.9L676,358.6c-0.9-2.1-2.7-3.6-4.8-4.3l0.4-12.7c0.1-2.6-1.1-5.2-3.1-6.8l-21.2-16.6
				c-1.5-1.2-3.4-1.8-5.3-1.6l0.4-13.3c0.1-3.1-2.4-5.8-5.5-5.9l-24.5-0.8c-1.9-0.1-3.7,0.8-4.8,2.3c-0.7,1-1.1,2.1-1.1,3.3
				l-1.1,39.4l-14.5-0.4l0.7-30.8c0.1-2-0.6-4-1.8-5.5c-1.4-1.8-3.5-2.8-5.7-2.9l-22.5-0.7c-2.1-0.1-4.1,0.8-5.6,2.3
				s-2.4,3.6-2.4,5.7l-1.5,48.8l-11.5-0.3l0.5-16.4c0.1-4.3-2.2-8.1-5.7-9.3c-3.3-1.1-6.8,0.1-8.8,2.9l-28.3,38.8
				c-1.2,1.7-1.9,3.8-2,5.9l-1.1,35.2l-23.7-0.8l-0.3-5.1c-0.2-4-3.5-7.1-7.5-7.1h-1.1l-74.8,0.4l-1.6-42.1c-0.1-4-3.4-7.2-7.4-7.2
				l-40.2,0.2l-0.1-32c0-1.4-0.3-2.8-1-4c-2.2-3.5-6.7-4.5-10.2-2.4c-2.2,1.3-3.5,3.7-3.5,6.2l0.1,31.9l-28.5,0.1
				c-4.1,0-7.5,3.4-7.5,7.5l0.1,28.2l-32.5,0.1c-4.1,0-7.4,3.3-7.4,7.4l-0.1,31.2l-13.8,0.1l-0.3-139.8c0-2.9-1.6-5.5-4.2-6.7
				c-1-0.5-2.1-0.7-3.2-0.7l0,0l-84.2,0.4c-2.4,0-4.6,1.1-6,3c-1,1.4-1.5,3-1.4,4.7l0.4,80.4H59.5v-18.2c0-4.8-3.9-8.7-8.7-8.7l0,0
				H-1v3h52c3.2,0,5.7,2.6,5.7,5.7l0,0v19.5c0,0.8,0.7,1.5,1.5,1.5h79.5c0.8,0,1.5-0.7,1.5-1.5l-0.4-82.5c0-2.5,2-4.5,4.5-4.5
				l83.9-0.4c2.5,0,4.5,2,4.5,4.5l0,0l0.3,141.6c0,0.4,0.2,0.8,0.4,1.1c0.3,0.3,0.7,0.4,1.1,0.4l0,0l16.6-0.1c0.8,0,1.5-0.7,1.5-1.5
				l0.1-32.8c0-2.5,2-4.4,4.4-4.5l33.8-0.2c0.8,0,1.5-0.7,1.5-1.5l0,0l-0.1-29.7c0-2.5,2-4.5,4.5-4.5l0,0l30-0.1
				c0.4,0,0.8-0.2,1.1-0.4c0.3-0.3,0.4-0.6,0.4-1l-0.2-33.7c0-2.5,2-4.5,4.5-4.5l0,0l0,0c1.2,0,2.3,0.5,3.2,1.3
				c0.9,0.8,1.4,2,1.4,3.2l0.2,33.9c0,0.8,0.7,1.5,1.5,1.5l0,0l41.7-0.2c2.4,0,4.4,1.9,4.5,4.3l1.7,43.3c0,0.8,0.7,1.4,1.5,1.4h0.1
				l76.9-0.5c2.4,0,4.3,1.8,4.5,4.2l0.3,6.2c0,0.8,0.7,1.4,1.4,1.4l26.4,0.8c0.4,0,0.8-0.1,1.1-0.4s0.5-0.6,0.5-1l1.1-35.6
				c0-1.5,0.5-2.9,1.4-4l28.6-37.6c1.2-1.7,3.4-2.5,5.4-1.8c2.3,0.8,3.8,3.3,3.7,6.2l-0.5,17.4c0,0.4,0.1,0.8,0.4,1
				c0.3,0.3,0.7,0.4,1,0.5l14.5,0.4c0.8,0,1.5-0.6,1.5-1.4l0,0l1.5-48.9c0-1.3,0.6-2.6,1.5-3.6c0.9-0.9,2.1-1.4,3.4-1.4l22.4,0.9
				c1.4,0,2.6,0.7,3.5,1.7c0.8,1,1.2,2.2,1.2,3.5l-0.8,31.3c0,0.8,0.6,1.5,1.5,1.5l0,0l17.4,0.4h0.1c0.4,0,0.8-0.1,1.1-0.4
				s0.4-0.6,0.5-1l1.2-39.8c0-0.7,0.3-1.4,0.8-1.8c0.5-0.5,1.2-0.7,1.9-0.7l24.5,0.7c1.5,0,2.6,1.2,2.6,2.7l-0.5,14.8
				c0,0.5,0.2,1,0.6,1.2c0.4,0.3,0.9,0.4,1.4,0.2c1.5-0.6,3.2-0.3,4.4,0.7l21.3,16.2c1.3,1,2.1,2.6,2,4.2l-0.4,13.5
				c0,0.8,0.6,1.5,1.4,1.5c2.2,0.3,3.9,2,4.2,4.2c0.1,0.5,0.4,1,0.9,1.2s1.1,0.1,1.5-0.2l23.7-18.4c1.4-1.1,3.3-1.3,4.9-0.5
				c1.8,0.9,2.9,2.8,2.8,4.7L707,384c0,0.4,0.1,0.8,0.4,1.1c0.3,0.3,0.7,0.4,1,0.5l6,0.2c1.4,0.1,2.6,0.7,3.5,1.8
				c0.4,0.5,1.1,0.7,1.7,0.5c1.2-0.3,2-0.5,4.5-28.1v-0.1c0-2.1,1.7-3.7,3.8-3.7l0,0h296c0.4,0,0.8-0.2,1.1-0.4
				c0.3-0.3,0.4-0.6,0.4-1l-0.2-35.8c0-1.2,0.5-2.3,1.3-3.2c0.8-0.9,2-1.3,3.2-1.3l40-0.2c0.8,0,1.5-0.7,1.5-1.5v-8.6
				c0-1.1,0.3-2.1,1-3c0.9-1.1,2.2-1.7,3.6-1.7h7c0.8,0,1.4-0.7,1.4-1.4v-42.5c0,0-0.1-2.3,0.8-3.2c0.9-0.8,2-1.4,3.2-1.6l4.6,1l0,0
				c2.5-0.7,4.4,3.7,4.4,3.7v41.9c0.2,0.4,0.4,0.7,0.7,1.1c0.2,0.3,0.7,0.4,1,0.1l0,0l5.8,1l0,0c0.2,0,0.3,0,0.5,0
				c2.3,0.3,4,2.3,4,4.6v8c0,0.8,0.7,1.4,1.5,1.4l101.6,0.2c2.3,0,4.2,1.8,4.3,4.1l1,523.4c0,0.8,0.7,1.5,1.5,1.5l0,0
				c0.8,0,1.5-0.6,1.6-1.5c0,0,0,0,0-0.1L1218.2,317.8z"/>
		</g>
	</g>
</g>
<g>
	<path class="st5" d="M1968.4,532.3c0.7-25.8-20.2-47.4-46.5-47.9c-7.7-0.1-15.4,1.7-22.3,5.1c-4.8-12.9-17-21.6-30.7-21.8
		c-1,0-2.1,0-3.1,0.1c0-0.4,0-0.8,0-1.3c0.1-9.3-7.3-16.9-16.5-16.9c-6.4-0.1-12.2,3.5-15.1,9.2c-13.7-8.5-30.5-9.5-45.1-2.8
		c-15.9-9.3-36.4-3.9-45.7,12.1c-2.9,4.9-4.5,10.4-4.6,16.1c0,1.3,0.1,2.6,0.1,3.8c-7.5,2.3-14.1,7.2-18.4,13.8
		c-3.5-3.6-7.5-6.5-11.9-8.9c2.1-9-3.5-18-12.5-20.1s-18,3.5-20.1,12.5c-0.2,1.1-0.4,2.3-0.5,3.4c-3.2,0.7-6.3,1.8-9.2,3.2
		c-1.2-0.8-2.5-1.5-4-1.9c-8.7-2.9-18.2,1.8-21.1,10.7c-0.2,0.5-0.3,0.9-0.4,1.2c-0.9-0.4-2-0.7-2.9-1.1c-8.1-2.6-16.7-2-24.1,1.4
		c-5.2,1-10.2,3.2-14.6,6.8c-4.9-4.3-10.6-7.6-16.8-9.6c-25-8-51.8,5.6-59.5,30.2c-8.1,24.9,5.5,51.7,30.4,59.8
		c0.7,0.2,1.5,0.5,2.2,0.7c1.1,17.2,15.2,30.9,32.7,31.2c6.8,0.1,13.2-1.8,18.5-5.3c6,17.2,22.3,29.7,41.6,30
		c12.9,0.2,24.5-5,32.8-13.6c2.9,5.3,8.5,8.9,15,9c8.3,0.1,15.4-5.6,17.3-13.4c5.1,2.5,10.7,3.9,16.7,4c11.6,0.2,22-4.6,29.4-12.3
		c5.8,2.9,12.3,4.6,19.2,4.7c-4,3.4-6.6,8.4-6.7,14.1c-0.2,10.4,8.1,18.9,18.5,19.1c5,0.1,9.5-1.8,13-4.9
		c7.5,6.2,17.1,9.9,27.6,10.1c16,0.3,30.1-7.9,38.2-20.3c2.8,1.7,6,2.7,9.5,2.8c10.4,0.2,18.9-8.1,19.1-18.5c0-0.3,0-0.6,0-0.9
		c19.9-4.3,34.9-21.9,35.2-43.1c0-1.7-0.1-3.5-0.2-5.2C1953.1,572.2,1968.1,554.1,1968.4,532.3z"/>
	<path class="st1" d="M1832,664.3c-0.3,0-0.5,0-0.8,0c-10.1-0.2-19.6-3.5-27.5-9.6c-3.6,2.9-8.1,4.4-12.7,4.4c-0.1,0-0.2,0-0.3,0
		c-5.5-0.1-10.6-2.3-14.4-6.2s-5.9-9.1-5.8-14.6c0.1-4.6,1.7-9,4.6-12.6c-5.2-0.5-10.2-1.9-14.9-4.1c-7.8,7.6-18.3,12-29.2,12
		c-0.2,0-0.4,0-0.7,0c-5.4-0.1-10.7-1.2-15.6-3.3c-2.7,7.5-10,12.7-18.1,12.7c-0.1,0-0.2,0-0.3,0c-6.1-0.1-11.7-3.1-15.3-8
		c-8.9,8.3-20.3,12.7-32.6,12.6c-18.7-0.3-35.5-11.9-42.5-29.2c-5.4,3-11.5,4.5-17.7,4.5c-17.8-0.3-32.6-14.1-34.3-31.7l-1.1-0.4
		c-25.8-8.4-39.9-36.2-31.5-62c3.8-12.2,12.3-22.2,23.8-28.2c11.8-6.1,25.3-7.2,38-3.2c5.9,1.9,11.5,5,16.3,9.1
		c4.2-3.1,9-5.2,14-6.2c8-3.6,16.9-4.1,25.2-1.4c0.4,0.1,0.8,0.3,1.3,0.4c1.6-4.5,4.8-8.1,9.1-10.3c4.4-2.2,9.4-2.6,14.1-1
		c1.2,0.4,2.4,0.9,3.5,1.6c2.4-1.1,4.9-1.9,7.5-2.6c0.1-0.8,0.2-1.6,0.4-2.3c1.1-4.8,4-8.9,8.2-11.5s9.2-3.4,14-2.3s8.9,4,11.5,8.2
		c2.4,3.8,3.3,8.3,2.6,12.6c3.5,2,6.7,4.3,9.7,7.1c4.2-5.7,10.1-10,16.8-12.4c0-0.8-0.1-1.7-0.1-2.6c0.1-6,1.7-11.7,4.8-17
		c4.7-8.1,12.3-13.9,21.4-16.3c8.8-2.3,17.9-1.2,25.8,3.2c14.5-6.3,30.9-5.4,44.4,2.4c3.4-5.3,9.4-8.6,15.8-8.5c4.9,0,9.5,2,13,5.5
		c3.3,3.4,5.2,7.9,5.3,12.7c0.5,0,0.9,0,1.4,0c13.7,0.2,26.2,8.6,31.6,21.1c6.7-3.1,14-4.6,21.4-4.5c13.3,0.3,25.7,5.7,34.9,15.3
		c8.9,9.4,13.7,21.6,13.3,34.4c-0.3,21.5-14.8,40.3-35.3,46.4c0.1,1.3,0.1,2.6,0.1,3.9c-0.3,21.2-14.7,39.3-35.2,44.4
		c-0.2,5.3-2.4,10.2-6.2,13.9c-3.9,3.7-8.9,5.8-14.3,5.8c-0.1,0-0.2,0-0.3,0c-3.1,0-6.2-0.8-8.9-2.2
		C1861.3,657,1847.2,664.3,1832,664.3z M1803.6,650.2l1.2,1c7.6,6.2,16.7,9.5,26.5,9.7c0.2,0,0.5,0,0.7,0c14.6,0,28-7.3,36-19.5
		l0.9-1.4l1.4,0.9c2.6,1.6,5.6,2.5,8.6,2.5c0.1,0,0.2,0,0.3,0c9.3,0,16.9-7.5,17-16.8c0-0.1,0-0.3,0-0.4l-0.1-1.8l1.4-0.3
		c19.6-4.3,33.5-21.3,33.8-41.4c0-1.6,0-3.3-0.2-5l-0.1-1.5l1.4-0.4c19.8-5.2,33.8-23.1,34.1-43.5l0,0c0.3-11.8-4.1-23.2-12.4-31.9
		c-8.5-8.9-20-14-32.4-14.2c-7.4-0.1-14.8,1.6-21.4,5l-1.7,0.9l-0.7-1.8c-4.5-12.1-16.2-20.4-29.1-20.6c-0.9,0-2,0-2.9,0l-1.9,0.2
		l0.1-3.2c0.1-4-1.5-7.8-4.3-10.7c-2.8-2.9-6.5-4.4-10.5-4.5c-5.7-0.1-11,3.1-13.6,8.2l-0.9,1.7l-1.6-1c-13.1-8.2-29.3-9.2-43.5-2.7
		l-0.8,0.4l-0.8-0.5c-7.3-4.3-15.8-5.4-23.9-3.3c-8.2,2.2-15.1,7.4-19.3,14.7c-2.8,4.8-4.2,9.9-4.3,15.3c0,1.2,0.1,2.5,0.1,3.7
		l0.1,1.4l-1.3,0.4c-7.2,2.2-13.4,6.8-17.4,13.1l-1.2,1.8l-1.5-1.5c-3.5-3.5-7.3-6.3-11.5-8.6l-1.2-0.6l0.3-1.3
		c0.9-3.9,0.3-7.9-1.9-11.3c-2.1-3.4-5.4-5.8-9.3-6.7c-3.9-0.9-7.9-0.3-11.3,1.9c-3.4,2.1-5.8,5.4-6.7,9.3c-0.2,0.9-0.4,2.1-0.4,3
		v1.4l-1.3,0.3c-3,0.7-6,1.7-8.9,3.1l-0.9,0.4l-0.8-0.5c-1.1-0.7-2.3-1.3-3.6-1.7c-3.8-1.3-7.8-1-11.4,0.8s-6.3,4.9-7.5,8.7l-1,3.1
		l-1.8-0.8c-0.8-0.4-1.9-0.7-2.8-1c-7.5-2.4-15.6-2-22.9,1.3l-0.4,0.1c-5,1-9.8,3.2-13.8,6.4l-1.2,0.9l-1.1-1
		c-4.7-4.2-10.3-7.4-16.2-9.3c-11.8-3.8-24.3-2.7-35.3,2.9c-10.7,5.5-18.5,14.8-22.1,26.1c-7.8,24,5.3,49.8,29.3,57.6l3.3,1.1
		l0.1,1.2c1,16.3,14.6,29.3,31,29.6c6.2,0.1,12.3-1.6,17.6-5l1.9-1.2l0.7,2.1c5.9,17,22,28.5,40,28.8c0.2,0,0.5,0,0.7,0
		c11.7,0,22.6-4.6,30.8-13.1l1.6-1.7l1.1,2.1c2.7,4.9,7.9,8,13.5,8.1c0.1,0,0.2,0,0.2,0c7.2,0,13.6-5,15.3-12.1l0.5-2.1l2,1
		c5,2.4,10.4,3.7,16,3.8c0.2,0,0.4,0,0.6,0c10.4,0,20.4-4.3,27.5-11.8l0.9-0.9l1.2,0.6c5.8,2.9,12,4.4,18.5,4.5l4.7,0.1l-3.6,3
		c-3.8,3.2-6,7.9-6.1,12.8c-0.1,4.6,1.6,8.9,4.8,12.1s7.4,5.1,12,5.2c4.3,0.1,8.5-1.5,11.7-4.5L1803.6,650.2z"/>
</g>
<g>
	<path class="st5" d="M709,517.9c-29.1-26-73.7-23.4-99.7,5.7c-6.5-3.3-13.6-5.2-20.8-5.5c-27.5-1.1-50.6,20.3-51.7,47.7
		c-11.4-4.9-24.7-0.6-31.2,10.1l0.3,0.7c-2.9,3.8-4.6,8.6-4.6,13.8c0,12.7,10.3,23,23,23c0.2,0,0.3,0,0.5,0
		c4.2,0.3,8.4-0.4,12.1-2.1c5.1-2.3,9.3-6.2,11.9-11.1c7.5,8.7,17.9,14.5,29.3,16.4c-1.3,10.4,4.1,20.6,13.6,25.4
		c12.2,6.2,27.2,1.2,33.4-11.1c29.1,17.9,66.8,12.3,89.6-13.2C740.7,588.5,738.1,543.8,709,517.9z"/>
	<path class="st1" d="M602.8,646.3c-4.1,0-8.1-1-11.9-2.9c-9.6-4.8-15.3-14.9-14.7-25.5c-10.4-2.1-19.9-7.3-27.1-14.9
		c-2.8,4.2-6.8,7.6-11.5,9.8c-4,1.8-8.4,2.6-12.9,2.3h-0.1c-0.1,0-0.3,0-0.4,0c-13.6,0-24.7-11.1-24.7-24.7c0-5.1,1.5-9.9,4.3-14
		l-0.3-0.6l0.5-0.8c6.5-10.7,19.5-15.4,31.1-11.6c2.4-27.2,25.8-48,53.4-46.9c6.9,0.3,13.9,2,20.3,5.1c12.8-13.8,30.1-22,49-23.1
		c19.3-1.1,37.9,5.4,52.3,18.2l0,0c14.4,12.9,23,30.6,24.1,49.9c1.1,19.3-5.4,37.9-18.2,52.3c-23,25.7-60.7,31.6-90.3,14.5
		c-3.3,5.6-8.4,9.7-14.7,11.7C608.4,645.8,605.6,646.3,602.8,646.3z M548.5,597l1.7,1.9c7.2,8.4,17.2,14,28.2,15.8l1.7,0.3l-0.2,1.7
		c-1.2,9.7,3.9,19.2,12.6,23.6c5.4,2.8,11.7,3.2,17.5,1.3c5.9-1.9,10.7-6.1,13.5-11.6l0.9-1.7l1.6,1c11.1,6.9,23.6,10.2,35.9,10.2
		c19.1,0,37.9-7.9,51.4-23c12.2-13.7,18.4-31.4,17.4-49.7c-1.1-18.4-9.2-35.2-22.9-47.5c-13.7-12.2-31.4-18.4-49.7-17.4
		c-18.4,1.1-35.2,9.2-47.5,22.9l-0.9,1l-1.2-0.6c-6.3-3.2-13.2-5-20.1-5.3c-26.5-1-48.9,19.6-49.9,46l-0.1,2.5l-2.3-1
		c-10.2-4.4-22.3-0.7-28.5,8.6l0.4,0.8l-0.6,0.8c-2.8,3.7-4.2,8.1-4.2,12.7c0,11.7,9.5,21.2,21.2,21.2h0.6h0.1
		c3.9,0.3,7.8-0.4,11.3-2c4.7-2.1,8.7-5.8,11.1-10.3L548.5,597z"/>
</g>
<g>
	<path class="st6" d="M218.5,553.5c-0.1-31.8-26-57.5-57.8-57.4c-9.3,0-18.4,2.3-26.5,6.6c-6.1-15.5-21.1-25.6-37.7-25.6
		c-1.3,0-2.5,0.1-3.8,0.2c0-0.5,0-1,0-1.5c-0.1-11.2-9.2-20.2-20.4-20.2c-7.7,0-14.7,4.4-18.1,11.3c-16.7-10-37.2-10.9-54.6-2.5
		l-0.8-0.4v88.5c-20,6.3-34.4,24.6-34.4,46.3c0,26.9,22.3,48.6,49.8,48.6c7,0,13.6-1.4,19.6-3.9c2.7,5,8.1,8.3,14.2,8.3
		c8.9,0,16.1-7,16.1-15.7c0-0.5,0-0.9-0.1-1.4c4.3,2.3,9.3,3.6,14.5,3.6c14.6,0,26.8-10,29.9-23.3c1.5,15.2,14.6,27.1,30.6,27.1
		c17,0,30.7-13.4,30.7-30c0-0.6,0-1.2-0.1-1.7C197.4,606,218.5,582.3,218.5,553.5z"/>
	<path class="st1" d="M48,653.5c-6.1,0-11.6-3-14.9-7.9c-6,2.3-12.4,3.5-18.9,3.5c-28.4,0-51.5-22.6-51.5-50.4
		c0-21.5,13.8-40.4,34.4-47.5v-90l2.6,1.3c17.3-8,37.3-7.3,53.9,2c4-6.6,11-10.6,18.8-10.6c12,0,21.8,9.6,22.1,21.5
		c0.7,0,1.3-0.1,2.1-0.1c16.8,0,31.8,9.7,38.5,24.9c7.9-3.9,16.7-5.9,25.6-5.9c15.9,0,30.8,6.1,42.1,17.3
		c11.3,11.2,17.5,26.1,17.5,41.9l0,0c0,14.2-5.1,28-14.4,38.7c-8.9,10.2-21,17.1-34.2,19.5c0,0.1,0,0.2,0,0.3
		c0,17.5-14.6,31.8-32.5,31.8c-14.5,0-26.9-9.2-31-22.3C103,632.6,91.7,640,78.7,640c-4.4,0-8.8-0.9-12.8-2.6
		C65.1,646.4,57.4,653.5,48,653.5z M34.6,641.2l0.8,1.4c2.5,4.6,7.4,7.4,12.7,7.4c7.9,0,14.4-6.3,14.4-14c0-0.4,0-0.8-0.1-1.3
		l-0.3-3.2l2.8,1.5c4.2,2.2,8.9,3.4,13.7,3.4c13.6,0,25.2-9,28.2-21.9l2.4-10.3l1,10.5c1.4,14.6,13.8,25.5,28.8,25.5
		c16,0,29-12.7,29-28.3c0-0.5,0-1.1-0.1-1.6l-0.1-1.6l1.6-0.2c27.4-4.2,47.2-27.4,47.2-55c0-14.9-5.9-28.9-16.5-39.4
		c-10.6-10.5-24.5-16.3-39.4-16.3c-0.1,0-0.1,0-0.2,0c-8.9,0-17.8,2.2-25.7,6.4l-1.7,0.9l-0.7-1.8c-5.8-14.9-20-24.5-36-24.5
		c-1.2,0-2.3,0.1-3.4,0.2l-2.1,0.2v-3.4c-0.1-10.2-8.4-18.4-18.6-18.4c-7.1,0-13.4,4-16.5,10.3l-0.8,1.7l-1.6-1
		c-16.1-9.6-35.8-10.6-52.8-2.5v87.9l-1.2,0.4c-19.9,6.3-33.2,24.2-33.2,44.6c0,25.9,21.5,46.9,48,46.9c6.6,0,13-1.3,19-3.8
		L34.6,641.2z"/>
</g>
<g>
	<path class="st5" d="M1314.1,580.3c3.3-5.9,5.2-12.6,5.2-19.8c0-22.2-18-40.2-40.2-40.2c-0.8,0-1.6,0-2.4,0.1v-0.3l0,0
		c-1-0.1-1.9-0.1-2.9-0.1c-9.1,0-17.9,3.7-24.1,10.3c-6.3-12.1-17.5-20.9-30.6-24.1c0-9.3-7.6-16.7-16.8-16.7
		c-9.3,0-16.7,7.6-16.7,16.8c0,1.2,0.1,2.4,0.4,3.5c-4.5,2.2-8.5,5.2-12.1,8.7c-4.2-6.7-10.6-11.7-18.2-14.1
		c0.1-1.3,0.2-2.5,0.2-3.8c-0.1-18.5-15.1-33.3-33.5-33.3c-5.7,0-11.3,1.5-16.3,4.3c-14.5-7-31.4-6.2-45.2,2.1
		c-4.1-8.3-14.1-11.8-22.4-7.7c-5.7,2.8-9.4,8.6-9.4,15c0,0.4,0,0.9,0,1.3c-1-0.1-2.1-0.1-3.1-0.1c-13.8,0-26.1,8.4-31.1,21.3
		c-23.2-12.3-51.9-3.5-64.2,19.7c-8.7,16.3-6.8,35.4,3.1,49.6c-7.9,2.1-13.8,9.3-13.8,17.9c0,10.2,8.3,18.5,18.5,18.5
		c6,0,11.4-2.9,14.8-7.4c7,11.8,19.9,19.6,34.5,19.6c1,0,2-0.1,3-0.1c0.3,8.8,7.5,15.9,16.4,15.9c4.3,0,8.1-1.6,11.1-4.3
		c11.1,19.7,32.1,33,56.3,33c24.6,0,45.9-13.7,56.8-33.9c4.8,3.1,10.5,4.9,16.6,4.9c5.2,0,10-1.3,14.3-3.6
		c5.3,16.7,20.9,28.8,39.3,28.8c13.6,0,25.6-6.6,33.1-16.7c6,2.5,12.6,3.9,19.5,3.9c22.3,0,41.3-14.3,48.3-34.2
		c1,0.2,1.9,0.3,2.9,0.3c10.2,0,18.5-8.3,18.5-18.5C1324.2,589.6,1320.1,583.4,1314.1,580.3z"/>
	<path class="st1" d="M1074.8,667.5c-23.2,0-44.8-12.2-56.8-32.1c-3.1,2.2-6.8,3.4-10.6,3.4c-9.3,0-16.8-6.8-18-15.8
		c-0.5,0-1,0-1.4,0c-13.9,0-27-7-34.8-18.4c-3.8,4-9,6.2-14.5,6.2c-11.2,0-20.2-9.1-20.2-20.2c0-8.4,5.1-15.8,12.8-18.8
		c-9.5-15-10.3-33.7-1.9-49.5c6.2-11.6,16.5-20.1,29.1-24c12-3.7,24.6-2.7,35.8,2.7c5.7-12.6,18-20.6,32-20.6c0.4,0,0.9,0,1.4,0
		c0.2-6.8,4.2-13,10.4-16c8.5-4.2,18.8-1.1,23.8,6.9c13.7-7.6,30.2-8.2,44.4-1.7c5.1-2.7,10.7-4.1,16.3-4.1
		c19.3,0,35.1,15.7,35.2,35c0,0.9,0,1.7-0.1,2.6c6.7,2.4,12.5,6.8,16.6,12.6c3.1-2.8,6.4-5.2,9.8-7c-0.1-0.8-0.2-1.6-0.2-2.5
		c0-10.2,8.3-18.5,18.4-18.5c9.8,0,17.8,7.5,18.5,17.1c12.3,3.4,22.8,11.5,29.3,22.6c6.3-5.9,14.8-9.2,23.7-9.2c1,0,2,0,3.1,0.1
		l1.6,0.2c0.2,0,0.4,0,0.7,0c23.1,0,42,18.8,42,42c0,6.7-1.6,13.3-4.6,19.2c5.9,3.7,9.4,10.1,9.4,17.1c0,11.2-9.1,20.2-20.2,20.2
		c-0.6,0-1.1,0-1.8-0.1c-7.8,20.4-27.5,34-49.5,34c-6.5,0-12.9-1.2-18.9-3.5c-8.1,10.3-20.6,16.4-33.7,16.4
		c-18.2,0-34.1-11.2-40.3-28.1c-4.2,1.9-8.7,2.9-13.3,2.9c-5.6,0-11.1-1.5-15.9-4.2C1120.4,654.8,1098.6,667.5,1074.8,667.5z
		 M1019,630l1.1,1.9c11.1,19.8,32.1,32.1,54.8,32.1c23.1,0,44.3-12.6,55.3-33l0.9-1.7l1.6,1c4.7,3,10.1,4.6,15.6,4.6
		c4.7,0,9.4-1.2,13.5-3.4l1.9-1l0.6,2c5.2,16.5,20.3,27.6,37.6,27.6c12.4,0,24.3-6,31.7-16l0.8-1.1l1.3,0.5c6,2.5,12.3,3.7,18.9,3.7
		c21,0,39.7-13.3,46.7-33l0.5-1.4l1.4,0.2c1,0.2,1.8,0.2,2.6,0.2c9.2,0,16.7-7.5,16.7-16.7c0-6.3-3.5-12-9.1-14.9l-1.6-0.8l0.9-1.6
		c3.3-5.8,5-12.3,5-19c0-21.2-17.3-38.5-38.5-38.5c-0.7,0-1.5,0-2.3,0.1l-1.9,0.1v-0.5c-0.4,0-0.7,0-1.1,0c-8.7,0-17,3.5-22.8,9.7
		l-1.7,1.8l-1.1-2.2c-6.1-11.6-16.8-20.1-29.4-23.2l-1.3-0.3v-1.4c0-8.2-6.7-14.9-15-14.9c-8.2,0-14.9,6.7-14.9,15
		c0,1.2,0.1,2.2,0.3,3l0.4,1.4l-1.3,0.6c-4.1,2-7.9,4.7-11.6,8.4l-1.6,1.5l-1.1-1.8c-4-6.4-10.1-11.1-17.2-13.3l-1.3-0.4l0.1-1.6
		c0.1-1.2,0.2-2.3,0.2-3.4c-0.1-17.4-14.3-31.5-31.7-31.5c-5.3,0-10.7,1.4-15.4,4.1l-0.8,0.4l-0.8-0.4c-13.9-6.7-30.2-6-43.5,2
		l-1.6,1l-0.8-1.7c-1.8-3.6-4.8-6.3-8.6-7.6c-3.8-1.3-7.8-1.1-11.4,0.7c-5.1,2.5-8.4,7.8-8.4,13.4v3.2l-1.9-0.2
		c-0.9-0.1-1.9-0.1-2.9-0.1c-13.1,0-24.7,7.9-29.4,20.2l-0.7,1.8l-1.7-0.9c-10.8-5.7-23.2-6.9-34.9-3.3s-21.3,11.5-27,22.3
		c-8.1,15.3-7,33.6,3,47.8l1.4,2.1l-2.4,0.6c-7.3,1.9-12.5,8.6-12.5,16.2c0,9.2,7.5,16.7,16.7,16.7c5.3,0,10.2-2.4,13.4-6.7l1.6-2.1
		l1.3,2.2c6.9,11.6,19.6,18.8,33,18.8c0.9,0,1.8,0,2.9-0.1l1.8-0.1l0.1,1.8c0.2,8,6.7,14.2,14.6,14.2c3.7,0,7.2-1.4,9.9-3.8
		L1019,630z"/>
</g>
</svg>
