<svg xmlns="http://www.w3.org/2000/svg" viewBox="0 0 1937.58 284.62"><defs><style>.cls-1{fill:#fff2e1;}.cls-2{fill:#333;}</style></defs><g id="圖層_2" data-name="圖層 2"><g id="BG"><rect class="cls-1" y="1.5" width="1937.58" height="283.11"/><path class="cls-2" d="M1910.48,3H43.82a1.5,1.5,0,0,1,0-3H1910.48a1.5,1.5,0,0,1,0,3Z"/><path class="cls-2" d="M1910.28,88.11H43.62a1.5,1.5,0,1,1,0-3H1910.28a1.5,1.5,0,0,1,0,3Z"/><path class="cls-2" d="M1910.28,176.21H43.62a1.5,1.5,0,0,1,0-3H1910.28a1.5,1.5,0,0,1,0,3Z"/><path class="cls-2" d="M634.46,116.35a3.56,3.56,0,0,1,2.63-1,11.54,11.54,0,0,1,6.63,2,23.11,23.11,0,0,1,5,4.46,90.81,90.81,0,0,1,5.71,7.87c1.68,2.54,3.19,4.66,4.51,6.37q4.31,5.51,8.61,5.51a7.67,7.67,0,0,0,6.26-2.59q2.14-2.6,2.15-7.71a26.38,26.38,0,0,0-2.46-11.22,3.35,3.35,0,0,1-.34-1.25A2.41,2.41,0,0,1,674,117a2.7,2.7,0,0,1,1.95-.76,2.84,2.84,0,0,1,2.6,1.51A31.12,31.12,0,0,1,682,132.36,16.63,16.63,0,0,1,680.3,140a13.43,13.43,0,0,1-5,5.52,13.57,13.57,0,0,1-7.28,2,13.24,13.24,0,0,1-7.52-2.23,27.17,27.17,0,0,1-5.74-5,91,91,0,0,1-6.36-8.62q-3.56-5-5.36-7.12a11,11,0,0,0-3.66-3v22.7a2.74,2.74,0,0,1-.89,2,2.94,2.94,0,0,1-2.12.85,2.81,2.81,0,0,1-2.08-.85,2.75,2.75,0,0,1-.86-2V118.91A3.44,3.44,0,0,1,634.46,116.35Z"/><path class="cls-2" d="M435,227a11.87,11.87,0,0,1-8.14,2.66,11.51,11.51,0,0,1-9.74-4.69q-3.53-4.69-3.52-12.37a33.77,33.77,0,0,1,2.73-13.71,2.69,2.69,0,0,1,2.67-1.78,3,3,0,0,1,2.08.76,2.46,2.46,0,0,1,.86,1.93,3.28,3.28,0,0,1-.27,1.25,26.84,26.84,0,0,0-2,10.43,18,18,0,0,0,1.85,8.76,6.07,6.07,0,0,0,5.67,3.32q8.55,0,8.55-14.44v-1a2.64,2.64,0,0,1,.89-2,2.85,2.85,0,0,1,2.05-.85,2.88,2.88,0,0,1,2.05.85,2.68,2.68,0,0,1,.89,2v.4q0,6.62,2.08,10a6.73,6.73,0,0,0,6.12,3.42,5.94,5.94,0,0,0,5.19-2.69c1.24-1.8,1.85-4.33,1.85-7.61a22.74,22.74,0,0,0-2.26-10.18,3.11,3.11,0,0,1-.27-1.18,2.38,2.38,0,0,1,.75-1.73,2.49,2.49,0,0,1,1.85-.76,2.62,2.62,0,0,1,2.39,1.38,26.17,26.17,0,0,1,3.49,13q0,7.54-3.22,11.71T450.43,228q-8.34,0-11.41-7.81A13,13,0,0,1,435,227Z"/><path class="cls-2" d="M391.1,250.56a1.5,1.5,0,0,1-1.5-1.5V182.74a1.5,1.5,0,0,1,3,0v66.32A1.5,1.5,0,0,1,391.1,250.56Z"/><path class="cls-2" d="M610.29,168.19a1.51,1.51,0,0,1-1.5-1.5V95.26a1.5,1.5,0,1,1,3,0v71.43A1.5,1.5,0,0,1,610.29,168.19Z"/><path class="cls-2" d="M932.9,88.11a1.5,1.5,0,0,1-1.5-1.5V1.5a1.5,1.5,0,0,1,3,0V86.61A1.5,1.5,0,0,1,932.9,88.11Z"/><path class="cls-2" d="M862.12,31.22a2.87,2.87,0,0,1,2.08-.82,3,3,0,0,1,2.12.82,2.61,2.61,0,0,1,.89,2V41h33.43a.78.78,0,0,0,.65-.23c.11-.15.08-.38-.11-.69l-2.87-5.71a3.57,3.57,0,0,1-.41-1.5,2.73,2.73,0,0,1,.86-2.07,3,3,0,0,1,2.15-.82,3,3,0,0,1,2.87,1.77l4.85,8.92a3.27,3.27,0,0,1,.48,1.84v1.38a3,3,0,0,1-1,2.26,3.27,3.27,0,0,1-2.36,1H867.21v6.43a2.74,2.74,0,0,1-.89,2,2.94,2.94,0,0,1-2.12.85,2.82,2.82,0,0,1-2.08-.85,2.79,2.79,0,0,1-.86-2V33.22A2.66,2.66,0,0,1,862.12,31.22Z"/><path class="cls-2" d="M843,81.68a1.5,1.5,0,0,1-1.5-1.5V8.54a1.5,1.5,0,1,1,3,0V80.18A1.5,1.5,0,0,1,843,81.68Z"/><path class="cls-2" d="M700.19,174.72a1.5,1.5,0,0,1-1.5-1.5V88.11a1.5,1.5,0,0,1,3,0v85.11A1.5,1.5,0,0,1,700.19,174.72Z"/><path class="cls-2" d="M481,262.82a1.5,1.5,0,0,1-1.5-1.5V176.21a1.5,1.5,0,0,1,3,0v85.11A1.5,1.5,0,0,1,481,262.82Z"/></g></g></svg>