<?xml version="1.0" encoding="utf-8"?>
<!-- Generator: Adobe Illustrator 24.2.3, SVG Export Plug-In . SVG Version: 6.00 Build 0)  -->
<svg version="1.1" id="圖層_1" xmlns="http://www.w3.org/2000/svg" xmlns:xlink="http://www.w3.org/1999/xlink" x="0px" y="0px"
	 viewBox="0 0 250 42" style="enable-background:new 0 0 250 42;" width="250px" height="42px" xml:space="preserve">
<style type="text/css">
	.st0{fill:#FFFFFF;}
</style>
<g id="圖層_2_1_">
	<g id="地圖">
		<path class="st0" d="M28.2,38.7c-2.2,0-3.1-1.1-3.1-3.2c-2.4,2-5.7,3-9.7,3c-4.9,0-8.6-1.7-11.2-5c-2.4-3.2-3.3-7.2-3-12.2
			c0.5-5.2,2.2-9.5,5.3-12.9c3.3-3.5,8-5.4,12.8-5.2c6.8,0,11.5,2.3,13.9,6.9c0.5,0.7,0.5,1.6,0.5,2.4c-0.1,0.9-0.5,1.8-1.1,2.3
			c-0.6,0.5-1.4,0.9-2.3,0.9C29,16,27.7,15.3,27,14.1c-1.7-2.9-4.6-4.2-8.6-4.2c-2.8,0-5.4,1.4-7,3.8c-1.7,2.2-2.8,4.9-3,7.7
			c-0.3,3.1,0.2,5.8,1.5,7.6c1.4,2.2,3.7,3.3,6.8,3.3c4,0,6.9-1.9,8.9-5.8h-5.2c-2.2,0-3.1-1.1-2.9-3.2s1.4-3.2,3.5-3.2h8.2
			c3,0,4.3,1.4,4,4.1l-0.9,10.3C32.1,37.2,30.8,38.7,28.2,38.7z"/>
		<path class="st0" d="M59.4,35.3c-2.4,2.2-5.6,3.4-8.8,3.3c-3.6,0-6.4-1.1-8.3-3.3c-1.9-2.2-2.8-5-2.4-8.6c0.2-3.2,1.5-6.3,3.9-8.5
			c2.4-2.2,5.6-3.3,8.9-3.2c3.6,0,6.4,1.1,8.4,3.2s2.8,4.9,2.4,8.5C63.2,30,61.8,33.1,59.4,35.3z M55.3,22.6
			c-0.7-1.1-1.9-1.7-3.2-1.6c-1.3,0-2.7,0.5-3.5,1.6c-0.9,1.2-1.4,2.7-1.5,4.2c-0.4,3.9,1,5.8,4,5.8s4.7-1.9,5-5.8
			C56.3,25.3,56.1,23.9,55.3,22.6z"/>
		<path class="st0" d="M104.2,38.7c-2.2,0-3.2-1.1-3.2-3.2c-2.4,2-5.7,3-9.7,3c-5,0-8.6-1.7-11.1-5c-2.4-3.2-3.4-7.2-3-12.2
			c0.5-5.3,2.2-9.5,5.3-12.9c3.3-3.5,8-5.4,12.8-5.2c6.8,0,11.5,2.3,13.9,6.9c0.4,0.7,0.5,1.6,0.5,2.4c-0.1,0.9-0.5,1.8-1.1,2.3
			c-0.6,0.6-1.4,0.9-2.2,0.9c-1.4,0.1-2.7-0.5-3.4-1.8c-1.7-2.9-4.6-4.2-8.6-4.2c-2.8,0-5.4,1.4-7,3.8c-1.7,2.2-2.8,4.9-3,7.7
			c-0.3,3.1,0.2,5.8,1.5,7.6c1.4,2.3,3.7,3.3,6.8,3.3c4,0,6.9-1.9,8.8-5.8h-5.2c-2.2,0-3.1-1.1-2.9-3.2c0.2-2.2,1.3-3.2,3.5-3.2h8.2
			c3,0,4.3,1.4,4.1,4.1l-0.9,10.3C108.1,37.2,106.7,38.7,104.2,38.7z"/>
		<path class="st0" d="M135.4,35.3c-2.4,2.2-5.6,3.4-8.8,3.3c-3.7,0-6.4-1.1-8.3-3.3s-2.7-5-2.4-8.6c0.2-3.2,1.5-6.3,3.9-8.5
			c2.4-2.2,5.7-3.3,8.9-3.2c3.7,0,6.4,1.1,8.4,3.2s2.8,4.9,2.4,8.5C139.1,30,137.8,33.1,135.4,35.3z M131.3,22.6
			c-0.7-1.1-1.9-1.7-3.2-1.6c-1.3,0-2.7,0.5-3.5,1.6c-0.9,1.2-1.4,2.7-1.5,4.2c-0.4,3.9,1,5.8,4,5.8s4.7-1.9,5-5.8
			C132.3,25.3,132,23.9,131.3,22.6z"/>
		<path class="st0" d="M180.2,38.7c-2.2,0-3.2-1.1-3.2-3.2c-2.4,2-5.7,3-9.7,3c-4.9,0-8.6-1.7-11.2-5c-2.4-3.2-3.4-7.2-3-12.2
			c0.4-5.3,2.2-9.6,5.3-12.9c3.3-3.5,8-5.4,12.8-5.2c6.8,0,11.5,2.3,13.9,6.9c0.5,0.7,0.5,1.6,0.5,2.4c-0.1,0.9-0.4,1.8-1.1,2.3
			c-0.6,0.5-1.4,0.9-2.2,0.9c-1.4,0.1-2.7-0.5-3.4-1.8c-1.7-2.9-4.6-4.2-8.6-4.2c-2.8,0-5.4,1.4-7,3.8c-1.7,2.2-2.8,4.9-3,7.7
			c-0.3,3.1,0.2,5.8,1.5,7.6c1.4,2.3,3.7,3.3,6.8,3.3c4,0,6.9-1.9,8.9-5.8h-5.2c-2.2,0-3.1-1.1-2.9-3.2s1.4-3.2,3.5-3.2h8.2
			c3,0,4.3,1.4,4.1,4.1l-0.9,10.3C184,37.2,182.7,38.7,180.2,38.7z"/>
		<path class="st0" d="M211.4,35.3c-2.4,2.2-5.6,3.4-8.8,3.3c-3.7,0-6.4-1.1-8.3-3.3c-1.9-2.2-2.8-5-2.4-8.6
			c0.2-3.2,1.5-6.3,3.9-8.5c2.4-2.2,5.7-3.3,8.9-3.2c3.7,0,6.4,1.1,8.4,3.2s2.8,4.9,2.4,8.5C215.1,30,213.7,33.1,211.4,35.3z
			 M207.3,22.6c-0.7-1.1-1.9-1.7-3.2-1.6c-1.3,0-2.7,0.5-3.5,1.6c-0.9,1.2-1.4,2.7-1.5,4.2c-0.4,3.9,1,5.8,4,5.8c3,0,4.7-1.9,5-5.8
			C208.3,25.3,208,23.9,207.3,22.6z"/>
		<path class="st0" d="M236.9,35.2c-1.7,0-3.2-1.3-3.2-3.1c0-0.9,0.4-1.7,1-2.3l6.5-6.5l-6.3-6.3c-1.3-1.3-1.3-3.2,0-4.5
			s3.2-1.3,4.5,0l8.5,8.6c0.5,0.6,0.9,1.4,0.9,2.2s-0.4,1.6-0.9,2.2l-8.7,8.7C238.6,34.9,237.8,35.2,236.9,35.2z"/>
	</g>
</g>
</svg>
