<?xml version="1.0" encoding="utf-8"?>
<!-- Generator: Adobe Illustrator 24.2.3, SVG Export Plug-In . SVG Version: 6.00 Build 0)  -->
<svg version="1.1" id="圖層_1" xmlns="http://www.w3.org/2000/svg" xmlns:xlink="http://www.w3.org/1999/xlink" x="0px" y="0px"
	 viewBox="0 0 308 70" width="308px" height="70px" style="enable-background:new 0 0 308 70;" xml:space="preserve">
<style type="text/css">
	.st0{fill:#FFFFFF;stroke:#727272;stroke-width:3;stroke-linecap:round;stroke-linejoin:round;}
</style>
<g>
	<path class="st0" d="M296.4,71c-10.2-16.1-28.2-26.8-48.7-26.8c0,0,0,0,0,0v0c-9.4,0-18.6,2.3-27,6.6
		c-6.1-15.6-21.1-25.8-37.8-25.8c-1.3,0-2.5,0.1-3.8,0.2c0-0.5,0.1-1,0.1-1.5c0-11.2-9.2-20.3-20.4-20.3c-7.8,0-14.8,4.5-18.2,11.4
		c-16.7-10-37.4-11-54.9-2.5c-19.5-11-44.3-4.1-55.3,15.4c-3.4,6.1-5.2,12.9-5.2,19.8c0,1.5,0.1,3.1,0.3,4.6
		c-9.1,2.9-16.9,9-22,17.1l-0.9-0.8V71"/>
</g>
</svg>
