<?xml version="1.0" encoding="utf-8"?>
<!-- Generator: Adobe Illustrator 24.2.3, SVG Export Plug-In . SVG Version: 6.00 Build 0)  -->
<svg version="1.1" id="圖層_1" xmlns="http://www.w3.org/2000/svg" xmlns:xlink="http://www.w3.org/1999/xlink" x="0px" y="0px"
	 viewBox="0 0 1920 520" width="1920px" height="520px" style="enable-background:new 0 0 1920 520;" xml:space="preserve">
<style type="text/css">
	.st0{fill:#FFEABB;stroke:#727272;stroke-width:3;stroke-linecap:round;stroke-linejoin:round;stroke-miterlimit:10;}
	.st1{fill:#FFBF12;}
</style>
<g>
	<g>
		<path class="st0" d="M1936.7,595.1V32.9l-29.2-0.1c-2,0-3.8,0.8-5.2,2.1c-1.4,1.4-2.2,3.2-2.2,5.2l-1.7,108.8l-36.7-0.1l1.5-63.5
			c0-4.1-3.3-7.4-7.4-7.4l-104.4-0.5c-2,0-3.8,0.8-5.2,2.1c-1.4,1.4-2.2,3.2-2.2,5.2l-0.4,181.1l-20.3-0.1l-0.2-98
			c0-4-3.3-7.3-7.3-7.4l-133.9-0.2l0.2-65.2c0-4.1-3.3-7.4-7.4-7.4l-37-0.2l0.2-41.9c0-4.1-3.3-7.4-7.4-7.4c-4.1,0-7.4,3.3-7.4,7.4
			l-0.2,41.9l-52.1-0.2c-4,0-7.3,3.1-7.4,7.1l-2.1,54.2l-247.9-0.6c-3.9,0-7.2,3-7.4,7l-0.4,65.3l-36.8,1.1l0.1-24.5l0.2-20.5
			c-0.1-2.3-0.8-4.5-2-6.2l-32.8-47.6c-2.1-2.9-5.6-4.1-8.7-3c-3.6,1.3-6,5.1-5.8,9.6c0,0,0,0,0,0l0.7,21.9l-18,0.5l-1.9-61.8
			c-0.1-4.5-3.7-8.1-8-8l-27.8,0.8c-2.2,0.1-4.3,1.1-5.7,2.9c-1.2,1.6-1.9,3.5-1.8,5.6l0.9,39.7l-21.5,0.6l-0.1,0l-1.5-50.4
			c0-1.4-0.6-2.7-1.6-3.6c-1-0.9-2.3-1.4-3.7-1.4l-30.4,0.9c-2.8,0.1-5.1,2.5-5,5.3l0.6,18.7c-2.4-0.9-5.2-0.5-7.3,1.1
			c0,0-70.5,26.1-73.1,27.4c-2.8,1.4-4.5,4.4-4.4,7.7l1.4,44.6l-7.4,0.2c-2.2,0.1-4.3,1.1-5.7,2.9c-1.2,1.6-1.9,3.5-1.8,5.6
			l0.5,37.8l-59.6,1.1c-6.5,0.1-11.6,5.4-11.6,11.9v74.5l-98.1-0.7l0.8-173c0-4.1-3.3-7.4-7.4-7.4L428,134c-2,0-3.8,0.7-5.2,2.1
			c-1.4,1.4-2.2,3.2-2.2,5.2l-0.8,122.3l-144.3-0.1l1.3-163.6c0-2.1-0.9-4.1-2.5-5.6c-1.4-1.2-3.3-1.9-5.1-1.9l-49.3-0.2l0.1-11.2
			c0-4.1-3.3-7.4-7.4-7.4l-8.6,0l0.2-51.9c0-2.1-0.9-4.1-2.5-5.6c-1.4-1.2-3.3-1.9-5.1-1.9l-5.4,0c-4.1,0-7.4,3.3-7.4,7.4l-0.2,51.9
			l-7.1,0c-2.1,0-4.1,0.9-5.6,2.5c-1.2,1.4-1.8,3.3-1.9,5.1l-0.1,11.1L43.4,92.9c-4,0.1-7.1,3.4-7.1,7.3L36,147.5h-52.7v447.6
			H1936.7z"/>
	</g>
	<g>
		<g>
			<path class="st1" d="M114.3,129.9c-1.1,0-2-0.9-2-2l-0.2-12.3c0-1.1,0.9-2,2-2c1.1,0,2,0.9,2,2l0.2,12.3
				C116.3,129,115.4,129.9,114.3,129.9C114.3,129.9,114.3,129.9,114.3,129.9z"/>
			<path class="st1" d="M125.8,130.3c-1.1,0-2-0.9-2-2l-0.2-12.3c0-1.1,0.9-2,2-2c1.1,0,2,0.9,2,2l0.2,12.3
				C127.9,129.4,127,130.3,125.8,130.3C125.8,130.3,125.8,130.3,125.8,130.3z"/>
			<path class="st1" d="M137.6,130.4c-1.1,0-2-0.9-2-2l-0.2-12.3c0-1.1,0.9-2,2-2c0,0,0,0,0,0c1.1,0,2,0.9,2,2l0.2,12.3
				C139.6,129.5,138.7,130.4,137.6,130.4C137.6,130.4,137.6,130.4,137.6,130.4z"/>
			<path class="st1" d="M149.1,130.8c-1.1,0-2-0.9-2-2l-0.2-12.3c0-1.1,0.9-2,2-2c0,0,0,0,0,0c1.1,0,2,0.9,2,2l0.2,12.3
				C151.1,129.9,150.2,130.8,149.1,130.8C149.1,130.8,149.1,130.8,149.1,130.8z"/>
		</g>
		<g>
			<path class="st1" d="M91.6,153.8c-1.1,0-2-0.9-2-2l-0.2-12.3c0-1.1,0.9-2,2-2c1.1,0,2,0.9,2,2l0.2,12.3
				C93.7,152.8,92.8,153.8,91.6,153.8C91.7,153.8,91.6,153.8,91.6,153.8z"/>
			<path class="st1" d="M103.2,154.1c-1.1,0-2-0.9-2-2l-0.2-12.3c0-1.1,0.9-2,2-2c0,0,0,0,0,0c1.1,0,2,0.9,2,2l0.2,12.3
				C105.2,153.2,104.3,154.1,103.2,154.1C103.2,154.1,103.2,154.1,103.2,154.1z"/>
			<path class="st1" d="M114.9,154.2c-1.1,0-2-0.9-2-2l-0.2-12.3c0-1.1,0.9-2,2-2c0,0,0,0,0,0c1.1,0,2,0.9,2,2l0.2,12.3
				C117,153.3,116.1,154.2,114.9,154.2C114.9,154.2,114.9,154.2,114.9,154.2z"/>
			<path class="st1" d="M126.5,154.6c-1.1,0-2-0.9-2-2l-0.2-12.3c0-1.1,0.9-2,2-2c1.1,0,2,0.9,2,2l0.2,12.3
				C128.5,153.7,127.6,154.6,126.5,154.6C126.5,154.6,126.5,154.6,126.5,154.6z"/>
		</g>
	</g>
	<g>
		<polyline class="st1" points="196.9,118 222.9,118 222.9,156.9 196.9,156.9 		"/>
		<polyline class="st1" points="253.3,156.9 227.3,156.9 227.3,118 253.3,118 		"/>
		<polyline class="st1" points="196.9,162.1 222.9,162.1 222.9,201.1 196.9,201.1 		"/>
		<polyline class="st1" points="253.3,201.1 227.3,201.1 227.3,162.1 253.3,162.1 		"/>
	</g>
	<g>
		<polyline class="st1" points="648.4,159.6 674.4,159.6 674.4,198.6 648.4,198.6 		"/>
		<polyline class="st1" points="704.8,198.6 678.8,198.6 678.8,159.6 704.8,159.6 		"/>
		<polyline class="st1" points="648.4,203.7 674.4,203.7 674.4,242.7 648.4,242.7 		"/>
		<polyline class="st1" points="704.8,242.7 678.8,242.7 678.8,203.7 704.8,203.7 		"/>
	</g>
	<g>
		<path class="st1" d="M7,179.8c-1.1,0-2-0.9-2-2l-0.2-12.3c0-1.1,0.9-2,2-2c0,0,0,0,0,0c1.1,0,2,0.9,2,2l0.2,12.3
			C9.1,178.9,8.2,179.8,7,179.8C7.1,179.8,7.1,179.8,7,179.8z"/>
		<path class="st1" d="M18.6,180.2c-1.1,0-2-0.9-2-2l-0.2-12.3c0-1.1,0.9-2,2-2c0,0,0,0,0,0c1.1,0,2,0.9,2,2l0.2,12.3
			C20.6,179.3,19.7,180.2,18.6,180.2C18.6,180.2,18.6,180.2,18.6,180.2z"/>
	</g>
	<g>
		<path class="st1" d="M853.9,311.7c-1.1,0-2-0.9-2-2l-0.3-12.3c0-1.1,0.9-2,2-2.1c0,0,0,0,0,0c1.1,0,2,0.9,2,2l0.3,12.3
			C856,310.7,855.1,311.6,853.9,311.7C854,311.7,854,311.7,853.9,311.7z"/>
		<path class="st1" d="M865.5,312c-1.1,0-2-0.9-2-2l-0.3-12.3c0-1.1,0.9-2,2-2.1c0,0,0,0,0,0c1.1,0,2,0.9,2,2l0.3,12.3
			C867.5,311,866.6,312,865.5,312C865.5,312,865.5,312,865.5,312z"/>
		<path class="st1" d="M843.8,311.3c-1.1,0-2-0.9-2-2l-0.3-12.3c0-1.1,0.9-2,2-2.1c0,0,0,0,0,0c1.1,0,2,0.9,2,2l0.3,12.3
			C845.8,310.3,844.9,311.2,843.8,311.3C843.8,311.3,843.8,311.3,843.8,311.3z"/>
		<path class="st1" d="M848.8,332.7c-1.1,0-2-0.9-2-2l-0.3-12.3c0-1.1,0.9-2,2-2.1c0,0,0,0,0,0c1.1,0,2,0.9,2,2l0.3,12.3
			C850.9,331.8,850,332.7,848.8,332.7C848.8,332.7,848.8,332.7,848.8,332.7z"/>
		<path class="st1" d="M860.4,333c-1.1,0-2-0.9-2-2l-0.3-12.3c0-1.1,0.9-2,2-2.1c0,0,0,0,0,0c1.1,0,2,0.9,2,2l0.3,12.3
			C862.4,332.1,861.5,333,860.4,333C860.4,333,860.4,333,860.4,333z"/>
	</g>
	<g>
		<polyline class="st1" points="1785.4,103.1 1811.5,103.1 1811.5,142.1 1785.4,142.1 		"/>
		<polyline class="st1" points="1841.9,142.1 1815.9,142.1 1815.9,103.1 1841.9,103.1 		"/>
		<polyline class="st1" points="1785.4,147.2 1811.5,147.2 1811.5,186.2 1785.4,186.2 		"/>
		<polyline class="st1" points="1841.9,186.2 1815.9,186.2 1815.9,147.2 1841.9,147.2 		"/>
	</g>
	<g>
		<path class="st1" d="M398.9,294.5C398.9,294.5,398.9,294.5,398.9,294.5c-1.2,0-2-1-2-2.1l0.3-12.3c0-1.1,1-2,2.1-2
			c1.1,0,2,1,2,2.1l-0.3,12.3C400.9,293.6,400,294.5,398.9,294.5z"/>
		<path class="st1" d="M410.4,295.4C410.4,295.4,410.4,295.4,410.4,295.4c-1.2,0-2-1-2-2.1l0.3-12.3c0-1.1,0.9-2,2.1-2
			c1.1,0,2,1,2,2.1l-0.3,12.3C412.4,294.5,411.5,295.4,410.4,295.4z"/>
		<path class="st1" d="M387.3,294.6C387.3,294.6,387.3,294.6,387.3,294.6c-1.2,0-2-1-2-2.1l0.3-12.3c0-1.1,1-2,2.1-2
			c1.1,0,2,1,2,2.1l-0.3,12.3C389.3,293.8,388.4,294.6,387.3,294.6z"/>
	</g>
</g>
</svg>
