<?xml version="1.0" encoding="utf-8"?>
<!-- Generator: Adobe Illustrator 24.2.3, SVG Export Plug-In . SVG Version: 6.00 Build 0)  -->
<svg version="1.1" id="圖層_1" xmlns="http://www.w3.org/2000/svg" xmlns:xlink="http://www.w3.org/1999/xlink" x="0px" y="0px"
	 viewBox="0 0 52 52" width="52px" height="52px" style="enable-background:new 0 0 52 52;" xml:space="preserve">
<style type="text/css">
	.st0{fill:#4C2C1A;}
</style>
<path class="st0" d="M16.8,34.4l7.7-7.7l-7.7-7.7c-0.8-0.8-0.9-1.5-0.2-2.2c0.7-0.7,1.4-0.6,2.2,0.2l7.7,7.7l7.7-7.7
	c0.8-0.8,1.5-0.8,2.1-0.2s0.6,1.4-0.2,2.1l-7.7,7.7l7.6,7.6c0.8,0.8,0.9,1.5,0.2,2.2s-1.4,0.6-2.2-0.2l-7.6-7.6l-7.7,7.7
	c-0.8,0.8-1.5,0.8-2.1,0.2C16,35.9,16,35.2,16.8,34.4z"/>
</svg>
