<?xml version="1.0" encoding="utf-8"?>
<!-- Generator: Adobe Illustrator 24.2.3, SVG Export Plug-In . SVG Version: 6.00 Build 0)  -->
<svg version="1.1" id="圖層_1" xmlns="http://www.w3.org/2000/svg" xmlns:xlink="http://www.w3.org/1999/xlink" x="0px" y="0px"
	 viewBox="0 0 116 130" width="116px" height="130px" style="enable-background:new 0 0 116 130;" xml:space="preserve">
<style type="text/css">
	.st0{fill:#FFD8A4;}
</style>
<g id="圖層_2_1_">
	<g id="開戶說明">
		<path class="st0" d="M43.7,1.5h33c2.8,0,5,2.2,5,5v87.9c0,2.8-2.2,5-5,5h-33c-2.8,0-5-2.2-5-5V6.5C38.7,3.7,40.9,1.5,43.7,1.5z"/>
		<path class="st0" d="M114,76.8L63,127.1c-1.9,1.9-5,1.9-6.9,0.1l-54-50.3c-2-1.9-2.1-5-0.3-7.1c0.9-1,2.3-1.6,3.7-1.6h104.9
			c2.8,0,5,2.2,5,5C115.5,74.6,114.9,75.9,114,76.8z"/>
	</g>
</g>
</svg>
