<?xml version="1.0" encoding="utf-8"?>
<!-- Generator: Adobe Illustrator 24.2.3, SVG Export Plug-In . SVG Version: 6.00 Build 0)  -->
<svg version="1.1" id="圖層_1" xmlns="http://www.w3.org/2000/svg" xmlns:xlink="http://www.w3.org/1999/xlink" x="0px" y="0px"
	 viewBox="0 0 42 42" style="enable-background:new 0 0 42 42;" width="42px" height="42px" xml:space="preserve">
<style type="text/css">
	.st0{fill:#F68A6B;}
	.st1{fill:#FFFFFF;}
</style>
<g>
	<g id="圖層_2_5_">
		<g id="注意事項_4_">
			<g>
				<circle class="st0" cx="21" cy="21" r="21"/>
			</g>
		</g>
	</g>
	<g>
		<path class="st1" d="M6.3,29c-0.2-0.2-0.4-0.5-0.4-0.9s0.1-0.6,0.4-0.9c0.2-0.2,0.5-0.4,0.9-0.4h3.4V12.9c0-0.1,0-0.2-0.1-0.3
			c-0.1,0-0.2,0-0.3,0l-2.5,1.2C7.4,14,7.2,14.1,7,14.1c-0.4,0-0.7-0.1-0.9-0.4s-0.4-0.5-0.4-0.9c0-0.6,0.3-0.9,0.8-1.2l3.9-2
			c0.2-0.1,0.5-0.2,0.8-0.2h0.6c0.4,0,0.7,0.1,1,0.4s0.4,0.6,0.4,1v16.1H16c0.3,0,0.6,0.1,0.9,0.4c0.2,0.2,0.4,0.5,0.4,0.9
			s-0.1,0.6-0.4,0.9c-0.2,0.2-0.5,0.4-0.9,0.4H7.2C6.8,29.3,6.5,29.2,6.3,29z"/>
		<path class="st1" d="M23.2,26.9c-1.3-1.8-2-4.3-2-7.5s0.7-5.7,2-7.5c1.3-1.8,3.3-2.7,5.7-2.7c2.4,0,4.4,0.9,5.7,2.7
			c1.4,1.8,2,4.3,2,7.5s-0.7,5.7-2,7.5c-1.4,1.8-3.3,2.7-5.7,2.7C26.5,29.6,24.5,28.7,23.2,26.9z M32.7,25.1
			c0.9-1.4,1.3-3.3,1.3-5.8c0-2.5-0.4-4.4-1.3-5.7c-0.9-1.4-2.1-2-3.8-2s-2.9,0.7-3.8,2s-1.3,3.3-1.3,5.7c0,2.5,0.4,4.4,1.3,5.8
			s2.1,2,3.8,2S31.8,26.5,32.7,25.1z"/>
	</g>
</g>
</svg>
