<?xml version="1.0" encoding="utf-8"?>
<!-- Generator: Adobe Illustrator 24.2.3, SVG Export Plug-In . SVG Version: 6.00 Build 0)  -->
<svg version="1.1" id="圖層_1" xmlns="http://www.w3.org/2000/svg" xmlns:xlink="http://www.w3.org/1999/xlink" x="0px" y="0px"
	 viewBox="0 0 42 42" style="enable-background:new 0 0 42 42;" width="42px" height="42px" xml:space="preserve">
<style type="text/css">
	.st0{fill:#F68A6B;}
	.st1{fill:#FFFFFF;}
</style>
<g>
	<g id="圖層_2_12_">
		<g id="注意事項_11_">
			<g>
				<circle class="st0" cx="21" cy="21" r="21"/>
			</g>
		</g>
	</g>
	<g>
		<path class="st1" d="M7.3,29c-0.2-0.2-0.4-0.5-0.4-0.9s0.1-0.6,0.4-0.9c0.2-0.2,0.5-0.4,0.9-0.4h3.4V12.9c0-0.1,0-0.2-0.1-0.3
			c-0.1,0-0.2,0-0.3,0l-2.5,1.2C8.4,14,8.2,14.1,8,14.1c-0.4,0-0.7-0.1-0.9-0.4s-0.4-0.5-0.4-0.9c0-0.6,0.3-0.9,0.8-1.2l3.9-2
			c0.2-0.1,0.5-0.2,0.8-0.2h0.6c0.4,0,0.7,0.1,1,0.4s0.4,0.6,0.4,1v16.1H17c0.3,0,0.6,0.1,0.9,0.4c0.2,0.2,0.4,0.5,0.4,0.9
			s-0.1,0.6-0.4,0.9c-0.2,0.2-0.5,0.4-0.9,0.4H8.2C7.8,29.3,7.5,29.2,7.3,29z"/>
		<path class="st1" d="M25.6,28.8c-1.1-0.5-1.9-1.2-2.5-2.1c-0.5-0.8-0.8-1.7-0.8-2.7c0-2.6,1.4-4.4,4.2-5.4c-1-0.4-1.8-0.9-2.4-1.7
			c-0.6-0.7-0.9-1.6-0.9-2.7c0-0.9,0.2-1.7,0.7-2.4c0.5-0.9,1.2-1.5,2.2-2s2.3-0.8,3.8-0.8c1.6,0,2.9,0.3,3.8,0.8
			c0.9,0.5,1.7,1.1,2.1,1.9c0.5,0.8,0.7,1.6,0.7,2.5c0,1-0.3,1.9-0.9,2.7c-0.6,0.7-1.4,1.3-2.4,1.7c2.8,0.9,4.2,2.7,4.2,5.4
			c0,0.9-0.3,1.8-0.8,2.7c-0.5,0.9-1.4,1.6-2.5,2.1c-1.2,0.5-2.6,0.8-4.3,0.8C28.2,29.6,26.7,29.4,25.6,28.8z M32.8,26.7
			c0.7-0.4,1.2-0.8,1.6-1.3c0.4-0.5,0.5-1.1,0.5-1.6c0-1.2-0.5-2.1-1.4-2.8s-2.1-1-3.6-1s-2.6,0.3-3.6,1c-0.9,0.7-1.4,1.6-1.4,2.8
			c0,0.5,0.2,1,0.5,1.5c0.4,0.6,0.9,1.1,1.7,1.4s1.7,0.6,2.8,0.6C31.1,27.3,32.1,27.1,32.8,26.7z M33,16.7c0.7-0.6,1-1.3,1-2.2
			c0-0.9-0.4-1.7-1.1-2.2c-0.7-0.5-1.7-0.8-3-0.8s-2.2,0.3-3,0.8c-0.7,0.5-1.1,1.3-1.1,2.2c0,0.9,0.3,1.6,1,2.2s1.7,0.9,3,0.9
			S32.3,17.3,33,16.7z"/>
	</g>
</g>
</svg>
