<?xml version="1.0" encoding="utf-8"?>
<!-- Generator: Adobe Illustrator 24.2.3, SVG Export Plug-In . SVG Version: 6.00 Build 0)  -->
<svg version="1.1" id="圖層_1" xmlns="http://www.w3.org/2000/svg" xmlns:xlink="http://www.w3.org/1999/xlink" x="0px" y="0px"
	 viewBox="0 0 42 42" style="enable-background:new 0 0 42 42;" width="42px" height="42px" xml:space="preserve">
<style type="text/css">
	.st0{fill:#F68A6B;}
	.st1{fill:#FFFFFF;}
</style>
<g>
	<g id="圖層_2_10_">
		<g id="注意事項_9_">
			<g>
				<circle class="st0" cx="21" cy="21" r="21"/>
			</g>
		</g>
	</g>
	<g>
		<path class="st1" d="M7.3,29c-0.2-0.2-0.4-0.5-0.4-0.9s0.1-0.6,0.4-0.9c0.2-0.2,0.5-0.4,0.9-0.4h3.4V12.9c0-0.1,0-0.2-0.1-0.3
			c-0.1,0-0.2,0-0.3,0l-2.5,1.2C8.4,14,8.2,14.1,8,14.1c-0.4,0-0.7-0.1-0.9-0.4s-0.4-0.5-0.4-0.9c0-0.6,0.3-0.9,0.8-1.2l3.9-2
			c0.2-0.1,0.5-0.2,0.8-0.2h0.6c0.4,0,0.7,0.1,1,0.4s0.4,0.6,0.4,1v16.1H17c0.3,0,0.6,0.1,0.9,0.4c0.2,0.2,0.4,0.5,0.4,0.9
			s-0.1,0.6-0.4,0.9c-0.2,0.2-0.5,0.4-0.9,0.4H8.2C7.8,29.3,7.5,29.2,7.3,29z"/>
		<path class="st1" d="M36.7,19.6c0.5,1,0.8,2.2,0.8,3.5c0,1.2-0.3,2.3-0.9,3.3c-0.6,1-1.4,1.8-2.5,2.4s-2.3,0.8-3.7,0.8
			c-5.2,0-7.8-3.4-7.8-10.2c0-1.6,0.3-3.2,0.8-4.8c0.6-1.7,1.5-3,2.8-4c1.3-1,2.8-1.5,4.7-1.5c1,0,1.9,0.1,2.7,0.3
			c0.8,0.2,1.6,0.5,2.3,0.9c0.2,0.1,0.3,0.2,0.5,0.4c0.1,0.2,0.2,0.4,0.2,0.6c0,0.3-0.1,0.6-0.3,0.8c-0.2,0.2-0.5,0.4-0.9,0.4
			c-0.2,0-0.3,0-0.5-0.1c-1.2-0.5-2.5-0.8-3.8-0.8c-2,0-3.4,0.7-4.3,2c-0.9,1.3-1.5,3.1-1.6,5.1c1.3-1.6,3.3-2.4,5.8-2.4
			c1.3,0,2.4,0.3,3.4,0.8C35.4,17.8,36.2,18.6,36.7,19.6z M34.4,25.1c0.4-0.6,0.5-1.3,0.5-2c0-1.3-0.4-2.4-1.1-3.1s-1.8-1.1-3.1-1.1
			c-2.4,0-4.2,1-5.4,3.1c0.5,3.5,2.2,5.2,5.2,5.2c0.9,0,1.6-0.2,2.3-0.6C33.5,26.2,34,25.7,34.4,25.1z"/>
	</g>
</g>
</svg>
