<?xml version="1.0" encoding="utf-8"?>
<!-- Generator: Adobe Illustrator 24.2.3, SVG Export Plug-In . SVG Version: 6.00 Build 0)  -->
<svg version="1.1" id="圖層_1" xmlns="http://www.w3.org/2000/svg" xmlns:xlink="http://www.w3.org/1999/xlink" x="0px" y="0px"
	 viewBox="0 0 42 42" style="enable-background:new 0 0 42 42;" width="42px" height="42px" xml:space="preserve">
<style type="text/css">
	.st0{fill:#F68A6B;}
	.st1{fill:#FFFFFF;}
</style>
<g>
	<g id="圖層_2_7_">
		<g id="注意事項_6_">
			<g>
				<circle class="st0" cx="21" cy="21" r="21"/>
			</g>
		</g>
	</g>
	<g>
		<path class="st1" d="M7.3,29c-0.2-0.2-0.4-0.5-0.4-0.9s0.1-0.6,0.4-0.9c0.2-0.2,0.5-0.4,0.9-0.4h3.4V12.9c0-0.1,0-0.2-0.1-0.3
			c-0.1,0-0.2,0-0.3,0l-2.5,1.2C8.4,14,8.2,14.1,8,14.1c-0.4,0-0.7-0.1-0.9-0.4s-0.4-0.5-0.4-0.9c0-0.6,0.3-0.9,0.8-1.2l3.9-2
			c0.2-0.1,0.5-0.2,0.8-0.2h0.6c0.4,0,0.7,0.1,1,0.4c0.3,0.3,0.4,0.6,0.4,1v16.1H17c0.3,0,0.6,0.1,0.9,0.4c0.2,0.2,0.4,0.5,0.4,0.9
			s-0.1,0.6-0.4,0.9c-0.2,0.2-0.5,0.4-0.9,0.4H8.2C7.8,29.3,7.5,29.2,7.3,29z"/>
		<path class="st1" d="M35.6,20.7c0.8,0.8,1.2,2,1.2,3.4c0,1.7-0.7,3.1-2,4.1c-1.4,1-3.1,1.5-5.4,1.5c-2.2,0-4.1-0.4-6-1.1
			c-0.5-0.2-0.8-0.6-0.8-1.1c0-0.3,0.1-0.6,0.3-0.9c0.2-0.2,0.5-0.4,0.8-0.4c0.2,0,0.4,0,0.5,0.1c1.4,0.6,2.9,0.8,4.5,0.8
			c1.6,0,2.8-0.3,3.8-0.8c1-0.5,1.4-1.3,1.4-2.4c0-2.4-2.1-3.6-6.3-3.6h-0.5c-0.3,0-0.6-0.1-0.9-0.4s-0.4-0.5-0.4-0.9
			c0-0.3,0.1-0.6,0.4-0.9c0.2-0.2,0.5-0.4,0.9-0.4h0.2c1.9,0,3.4-0.3,4.4-0.9c1-0.6,1.5-1.4,1.5-2.5c0-0.9-0.4-1.7-1.2-2.2
			c-0.8-0.5-1.9-0.8-3.3-0.8c-1.6,0-3.1,0.3-4.4,0.9c-0.2,0.1-0.4,0.1-0.5,0.1c-0.3,0-0.5-0.1-0.8-0.3s-0.3-0.5-0.3-0.8
			c0-0.4,0.2-0.8,0.6-1c1.8-1,3.7-1.5,5.6-1.5c2.2,0,3.9,0.4,5.1,1.3c1.2,0.9,1.8,2.2,1.8,3.8c0,2.3-1.1,3.9-3.4,4.8
			C33.9,19.3,34.9,19.9,35.6,20.7z"/>
	</g>
</g>
</svg>
