<?xml version="1.0" encoding="utf-8"?>
<!-- Generator: Adobe Illustrator 24.2.3, SVG Export Plug-In . SVG Version: 6.00 Build 0)  -->
<svg version="1.1" id="圖層_1" xmlns="http://www.w3.org/2000/svg" xmlns:xlink="http://www.w3.org/1999/xlink" x="0px" y="0px"
	 viewBox="0 0 42 42" style="enable-background:new 0 0 42 42;" width="42px" height="42px" xml:space="preserve">
<style type="text/css">
	.st0{fill:#F68A6B;}
	.st1{fill:#FFFFFF;}
</style>
<g>
	<g id="圖層_2_9_">
		<g id="注意事項_8_">
			<g>
				<circle class="st0" cx="21" cy="21" r="21"/>
			</g>
		</g>
	</g>
	<g>
		<path class="st1" d="M7.3,29c-0.2-0.2-0.4-0.5-0.4-0.9c0-0.3,0.1-0.6,0.4-0.9c0.2-0.2,0.5-0.4,0.9-0.4h3.4V12.9
			c0-0.1,0-0.2-0.1-0.3c-0.1,0-0.2,0-0.3,0l-2.5,1.2C8.4,14,8.2,14.1,8,14.1c-0.4,0-0.7-0.1-0.9-0.4s-0.4-0.5-0.4-0.9
			c0-0.5,0.3-0.9,0.8-1.2l3.9-2c0.2-0.1,0.5-0.2,0.8-0.2h0.6c0.4,0,0.7,0.1,1,0.4s0.4,0.6,0.4,1v16.1H17c0.3,0,0.6,0.1,0.9,0.4
			c0.2,0.2,0.4,0.5,0.4,0.9c0,0.3-0.1,0.6-0.4,0.9c-0.2,0.2-0.5,0.4-0.9,0.4H8.2C7.8,29.3,7.5,29.2,7.3,29z"/>
		<path class="st1" d="M23.4,28c-0.2-0.1-0.3-0.3-0.4-0.4c-0.1-0.2-0.1-0.4-0.1-0.6c0-0.4,0.1-0.7,0.3-0.9c0.2-0.2,0.5-0.4,0.8-0.4
			c0.2,0,0.4,0,0.6,0.1c1.5,0.8,3.1,1.2,4.6,1.2c1.9,0,3.2-0.3,4.2-0.9c0.9-0.6,1.4-1.6,1.4-3.1c0-1.2-0.4-2.1-1.2-2.8s-1.9-1-3.2-1
			c-1.6,0-3,0.4-4.4,1.2l-0.3,0.2c-0.2,0.1-0.4,0.2-0.7,0.2c-0.6,0-1-0.2-1.4-0.5S23,19.6,23,19.1c0-0.2,0-0.4,0.1-0.7l1.3-7.6
			c0.1-0.4,0.2-0.8,0.5-1.1c0.3-0.3,0.6-0.4,1-0.4H35c0.3,0,0.6,0.1,0.9,0.4c0.2,0.2,0.4,0.5,0.4,0.9s-0.1,0.6-0.4,0.9
			c-0.2,0.2-0.5,0.4-0.9,0.4h-7.7c-0.4,0-0.6,0.2-0.6,0.5l-0.8,5.4c1.5-0.8,3.1-1.1,4.8-1.1c1.4,0,2.6,0.3,3.6,0.8
			c1,0.6,1.7,1.3,2.3,2.3c0.5,1,0.8,2.1,0.8,3.4c0,2-0.7,3.5-2,4.7c-1.3,1.2-3.3,1.8-5.8,1.8C27.1,29.6,25.1,29.1,23.4,28z"/>
	</g>
</g>
</svg>
