<svg xmlns="http://www.w3.org/2000/svg" viewBox="0 0 41.16 41.16" width="42px" height="42px"><defs><style>.cls-1{fill:#f68a6b;}.cls-2{fill:#fff;}</style></defs><g id="圖層_2" data-name="圖層 2"><g id="注意事項"><circle class="cls-1" cx="20.58" cy="20.58" r="20.58"/><path class="cls-2" d="M15.4,30.19a1.15,1.15,0,0,1-.36-.87,1.22,1.22,0,0,1,.36-.88,1.19,1.19,0,0,1,.87-.37h3.36V14.15c0-.14,0-.23-.1-.27s-.17,0-.3,0l-2.48,1.2a1.61,1.61,0,0,1-.65.17A1.23,1.23,0,0,1,14.84,14a1.23,1.23,0,0,1,.77-1.19l3.88-2a1.39,1.39,0,0,1,.79-.2h.6A1.42,1.42,0,0,1,22.28,12V28.07h2.79a1.23,1.23,0,0,1,.88.37,1.19,1.19,0,0,1,.37.88,1.13,1.13,0,0,1-.37.87,1.22,1.22,0,0,1-.88.36h-8.8A1.19,1.19,0,0,1,15.4,30.19Z"/></g></g></svg>