<?xml version="1.0" encoding="utf-8"?>
<!-- Generator: Adobe Illustrator 24.2.3, SVG Export Plug-In . SVG Version: 6.00 Build 0)  -->
<svg version="1.1" id="圖層_1" xmlns="http://www.w3.org/2000/svg" xmlns:xlink="http://www.w3.org/1999/xlink" x="0px" y="0px"
	 viewBox="0 0 42 42" style="enable-background:new 0 0 42 42;" width="42px" height="42px" xml:space="preserve">
<style type="text/css">
	.st0{fill:#F68A6B;}
	.st1{fill:#FFFFFF;}
</style>
<g>
	<g id="圖層_2_13_">
		<g id="注意事項_12_">
			<g>
				<circle class="st0" cx="21" cy="21" r="21"/>
			</g>
		</g>
	</g>
	<g>
		<path class="st1" d="M6.3,29c-0.2-0.2-0.4-0.5-0.4-0.9c0-0.3,0.1-0.6,0.4-0.9c0.2-0.2,0.5-0.4,0.9-0.4h3.4V12.9
			c0-0.1,0-0.2-0.1-0.3c-0.1,0-0.2,0-0.3,0l-2.5,1.2C7.4,14,7.2,14.1,7,14.1c-0.4,0-0.7-0.1-0.9-0.4s-0.4-0.5-0.4-0.9
			c0-0.5,0.3-0.9,0.8-1.2l3.9-2c0.2-0.1,0.5-0.2,0.8-0.2h0.6c0.4,0,0.7,0.1,1,0.4s0.4,0.6,0.4,1v16.1H16c0.3,0,0.6,0.1,0.9,0.4
			c0.2,0.2,0.4,0.5,0.4,0.9c0,0.3-0.1,0.6-0.4,0.9c-0.2,0.2-0.5,0.4-0.9,0.4H7.2C6.8,29.3,6.5,29.2,6.3,29z"/>
		<path class="st1" d="M24.2,29c-0.2-0.2-0.4-0.5-0.4-0.9c0-0.3,0.1-0.6,0.4-0.9c0.2-0.2,0.5-0.4,0.9-0.4h3.4V12.9
			c0-0.1,0-0.2-0.1-0.3c-0.1,0-0.2,0-0.3,0l-2.5,1.2c-0.2,0.1-0.5,0.2-0.7,0.2c-0.4,0-0.7-0.1-0.9-0.4s-0.4-0.5-0.4-0.9
			c0-0.5,0.3-0.9,0.8-1.2l3.9-2c0.2-0.1,0.5-0.2,0.8-0.2h0.6c0.4,0,0.7,0.1,1,0.4s0.4,0.6,0.4,1v16.1h2.8c0.3,0,0.6,0.1,0.9,0.4
			c0.2,0.2,0.4,0.5,0.4,0.9c0,0.3-0.1,0.6-0.4,0.9c-0.2,0.2-0.5,0.4-0.9,0.4H25C24.7,29.3,24.4,29.2,24.2,29z"/>
	</g>
</g>
</svg>
