<?xml version="1.0" encoding="utf-8"?>
<!-- Generator: Adobe Illustrator 24.2.3, SVG Export Plug-In . SVG Version: 6.00 Build 0)  -->
<svg version="1.1" id="圖層_1" xmlns="http://www.w3.org/2000/svg" xmlns:xlink="http://www.w3.org/1999/xlink" x="0px" y="0px"
	 viewBox="0 0 42 42" style="enable-background:new 0 0 42 42;" width="42px" height="42px" xml:space="preserve">
<style type="text/css">
	.st0{fill:#F68A6B;}
	.st1{fill:#FFFFFF;}
</style>
<g>
	<g id="圖層_2_1_">
		<g id="注意事項_15_">
			<g>
				<circle class="st0" cx="21" cy="21" r="21"/>
			</g>
		</g>
	</g>
	<g>
		<path class="st1" d="M5.1,30.6c-0.3-0.3-0.4-0.6-0.4-1.1c0-1,0.3-1.9,0.9-2.8c0.5-0.8,1.2-1.5,1.9-2.1c0.8-0.6,1.9-1.4,3.4-2.4
			c1.1-0.7,2-1.3,2.8-1.9c1.6-1.2,2.4-2.4,2.4-3.6c0-1.1-0.4-2-1.1-2.6c-0.8-0.6-1.9-0.9-3.3-0.9c-1.7,0-3.3,0.3-4.9,1
			c-0.2,0.1-0.4,0.1-0.5,0.1c-0.3,0-0.6-0.1-0.8-0.3c-0.2-0.2-0.3-0.5-0.3-0.8c0-0.5,0.2-0.8,0.7-1.1c1.9-1,4-1.5,6.3-1.5
			c1.3,0,2.4,0.2,3.3,0.7c1,0.5,1.8,1.2,2.4,2.1s0.9,1.9,0.9,3c0,1.2-0.3,2.2-1,3.1c-0.6,0.9-1.3,1.7-2.2,2.4s-2.1,1.6-3.7,2.6
			c-1.4,1-2.5,1.7-3.1,2.2s-1,1-1.3,1.5h9.9c0.3,0,0.6,0.1,0.9,0.4c0.2,0.2,0.4,0.5,0.4,0.9s-0.1,0.6-0.4,0.9
			c-0.2,0.2-0.5,0.4-0.9,0.4h-11C5.8,31,5.4,30.8,5.1,30.6z"/>
		<path class="st1" d="M25.3,30.4c-1.1-0.5-1.9-1.2-2.5-2.1c-0.5-0.8-0.8-1.7-0.8-2.7c0-2.6,1.4-4.4,4.2-5.4c-1-0.4-1.8-0.9-2.4-1.7
			C23.3,17.9,23,17,23,16c0-0.9,0.2-1.7,0.7-2.4c0.5-0.9,1.2-1.5,2.2-2s2.3-0.8,3.8-0.8c1.6,0,2.9,0.3,3.8,0.8
			c0.9,0.5,1.7,1.1,2.1,1.9c0.5,0.8,0.7,1.6,0.7,2.5c0,1-0.3,1.9-0.9,2.7C34.8,19.4,34,20,33,20.4c2.8,0.9,4.2,2.7,4.2,5.4
			c0,0.9-0.3,1.8-0.8,2.7c-0.5,0.9-1.4,1.6-2.5,2.1c-1.2,0.5-2.6,0.8-4.3,0.8C27.9,31.3,26.5,31,25.3,30.4z M32.6,28.3
			c0.7-0.4,1.2-0.8,1.6-1.3c0.4-0.5,0.5-1.1,0.5-1.6c0-1.2-0.5-2.1-1.4-2.8s-2.1-1-3.6-1s-2.6,0.3-3.6,1c-0.9,0.7-1.4,1.6-1.4,2.8
			c0,0.5,0.2,1,0.5,1.5c0.4,0.6,0.9,1.1,1.7,1.4s1.7,0.6,2.8,0.6C30.9,28.9,31.8,28.7,32.6,28.3z M32.7,18.3c0.7-0.6,1-1.3,1-2.2
			c0-0.9-0.4-1.7-1.1-2.2c-0.7-0.5-1.7-0.8-3-0.8s-2.2,0.3-3,0.8c-0.7,0.5-1.1,1.3-1.1,2.2c0,0.9,0.3,1.6,1,2.2s1.7,0.9,3,0.9
			S32,18.9,32.7,18.3z"/>
	</g>
</g>
</svg>
