<?xml version="1.0" encoding="utf-8"?>
<!-- Generator: Adobe Illustrator 24.2.3, SVG Export Plug-In . SVG Version: 6.00 Build 0)  -->
<svg version="1.1" id="圖層_1" xmlns="http://www.w3.org/2000/svg" xmlns:xlink="http://www.w3.org/1999/xlink" x="0px" y="0px"
	 viewBox="0 0 42 42" style="enable-background:new 0 0 42 42;" width="42px" height="42px" xml:space="preserve">
<style type="text/css">
	.st0{fill:#F68A6B;}
	.st1{fill:#FFFFFF;}
</style>
<g>
	<g id="圖層_2_17_">
		<g id="注意事項_17_">
			<g>
				<circle class="st0" cx="21" cy="21" r="21"/>
			</g>
		</g>
	</g>
	<g>
		<path class="st1" d="M5.4,28.9c-0.3-0.3-0.4-0.6-0.4-1.1c0-1,0.3-1.9,0.9-2.8C6.4,24.3,7,23.6,7.8,23c0.8-0.6,1.9-1.4,3.4-2.4
			c1.1-0.7,2-1.3,2.8-1.9c1.6-1.2,2.4-2.4,2.4-3.6c0-1.1-0.4-2-1.1-2.6c-0.8-0.6-1.9-0.9-3.3-0.9c-1.7,0-3.3,0.3-4.9,1
			c-0.2,0.1-0.4,0.1-0.5,0.1c-0.3,0-0.6-0.1-0.8-0.3c-0.2-0.2-0.3-0.5-0.3-0.8c0-0.5,0.2-0.8,0.7-1.1c1.9-1,4-1.5,6.3-1.5
			c1.3,0,2.4,0.2,3.3,0.7c1,0.5,1.8,1.2,2.4,2.1s0.9,1.9,0.9,3c0,1.2-0.3,2.2-1,3.1c-0.6,0.9-1.3,1.7-2.2,2.4S13.7,22,12,23.1
			c-1.4,1-2.5,1.7-3.1,2.2s-1,1-1.3,1.5h9.9c0.3,0,0.6,0.1,0.9,0.4c0.2,0.2,0.4,0.5,0.4,0.9s-0.1,0.6-0.4,0.9
			c-0.2,0.2-0.5,0.4-0.9,0.4h-11C6,29.3,5.7,29.2,5.4,28.9z"/>
		<path class="st1" d="M36.7,19.6c0.5,1,0.8,2.2,0.8,3.5c0,1.2-0.3,2.3-0.9,3.3c-0.6,1-1.4,1.8-2.5,2.4s-2.3,0.8-3.7,0.8
			c-5.2,0-7.8-3.4-7.8-10.2c0-1.6,0.3-3.2,0.8-4.8c0.6-1.7,1.5-3,2.8-4c1.3-1,2.8-1.5,4.7-1.5c1,0,1.9,0.1,2.7,0.3
			c0.8,0.2,1.6,0.5,2.3,0.9c0.2,0.1,0.3,0.2,0.5,0.4c0.1,0.2,0.2,0.4,0.2,0.6c0,0.3-0.1,0.6-0.3,0.8c-0.2,0.2-0.5,0.4-0.9,0.4
			c-0.2,0-0.3,0-0.5-0.1c-1.2-0.5-2.5-0.8-3.8-0.8c-2,0-3.4,0.7-4.3,2c-0.9,1.3-1.5,3.1-1.6,5.1c1.3-1.6,3.3-2.4,5.8-2.4
			c1.3,0,2.4,0.3,3.4,0.8C35.4,17.8,36.2,18.6,36.7,19.6z M34.4,25.1c0.4-0.6,0.5-1.3,0.5-2c0-1.3-0.4-2.4-1.1-3.1s-1.8-1.1-3.1-1.1
			c-2.4,0-4.2,1-5.4,3.1c0.5,3.5,2.2,5.2,5.2,5.2c0.9,0,1.6-0.2,2.3-0.6C33.5,26.2,34,25.7,34.4,25.1z"/>
	</g>
</g>
</svg>
