<svg xmlns="http://www.w3.org/2000/svg" viewBox="0 0 41.16 41.16" width="42px" height="42px"><defs><style>.cls-1{fill:#f68a6b;}.cls-2{fill:#fff;}</style></defs><g id="圖層_2" data-name="圖層 2"><g id="注意事項"><circle class="cls-1" cx="20.58" cy="20.58" r="20.58"/><path class="cls-2" d="M13.48,30.14a1.45,1.45,0,0,1-.43-1.1,4.65,4.65,0,0,1,.88-2.76,9.87,9.87,0,0,1,1.94-2.1,41.21,41.21,0,0,1,3.42-2.37c1.1-.71,2-1.33,2.76-1.88,1.59-1.2,2.39-2.39,2.39-3.59a3.14,3.14,0,0,0-1.12-2.61A5.36,5.36,0,0,0,20,12.84a11.91,11.91,0,0,0-4.87,1,1.42,1.42,0,0,1-.54.14,1.06,1.06,0,0,1-.78-.32,1.1,1.1,0,0,1-.33-.81,1.19,1.19,0,0,1,.65-1.09,14.08,14.08,0,0,1,6.33-1.45,7.55,7.55,0,0,1,3.33.71,5.76,5.76,0,0,1,2.39,2.07,5.45,5.45,0,0,1,.85,3,5.39,5.39,0,0,1-1,3.13,11.5,11.5,0,0,1-2.18,2.39,39.22,39.22,0,0,1-3.75,2.65c-1.44,1-2.47,1.74-3.09,2.24a4.61,4.61,0,0,0-1.29,1.52h9.85a1.22,1.22,0,0,1,.88.37,1.19,1.19,0,0,1,.37.88,1.13,1.13,0,0,1-.37.87,1.21,1.21,0,0,1-.88.36h-11A1.53,1.53,0,0,1,13.48,30.14Z"/></g></g></svg>