<svg xmlns="http://www.w3.org/2000/svg" viewBox="0 0 41.16 41.16" width="42px" height="42px"><defs><style>.cls-1{fill:#f68a6b;}.cls-2{fill:#fff;}</style></defs><g id="圖層_2" data-name="圖層 2"><g id="注意事項"><circle class="cls-1" cx="20.58" cy="20.58" r="20.58"/><path class="cls-2" d="M25.85,21.92A4.82,4.82,0,0,1,27,25.31a4.72,4.72,0,0,1-2,4.06,9,9,0,0,1-5.37,1.46,15.35,15.35,0,0,1-6-1.13,1.13,1.13,0,0,1-.77-1.12,1.2,1.2,0,0,1,.33-.86,1.09,1.09,0,0,1,.84-.36,1.58,1.58,0,0,1,.54.11,12.13,12.13,0,0,0,4.53.83,8.11,8.11,0,0,0,3.8-.77,2.51,2.51,0,0,0,1.44-2.36c0-2.38-2.09-3.56-6.27-3.56h-.45a1.21,1.21,0,0,1-.86-.37,1.23,1.23,0,0,1,.86-2.08h.17a8.72,8.72,0,0,0,4.35-.87,2.78,2.78,0,0,0,1.48-2.55,2.45,2.45,0,0,0-1.16-2.16,5.94,5.94,0,0,0-3.31-.77,10.17,10.17,0,0,0-4.41.94,1.51,1.51,0,0,1-.51.11,1.06,1.06,0,0,1-.76-.31,1,1,0,0,1-.32-.77,1.08,1.08,0,0,1,.59-1,11.9,11.9,0,0,1,5.64-1.45,8.41,8.41,0,0,1,5.08,1.34,4.45,4.45,0,0,1,1.81,3.82,4.73,4.73,0,0,1-3.39,4.75A5.76,5.76,0,0,1,25.85,21.92Z"/></g></g></svg>