<svg xmlns="http://www.w3.org/2000/svg" viewBox="0 0 41.16 41.16" width="42px" height="42px"><defs><style>.cls-1{fill:#f68a6b;}.cls-2{fill:#fff;}</style></defs><g id="圖層_2" data-name="圖層 2"><g id="注意事項"><circle class="cls-1" cx="20.58" cy="20.58" r="20.58"/><path class="cls-2" d="M22.63,30.31a1.3,1.3,0,0,1-.38-.93V25.54H13.59a1.62,1.62,0,0,1-1.18-.49,1.57,1.57,0,0,1-.5-1.16v-.26a1.74,1.74,0,0,1,.34-1.05l9-11.42a1.76,1.76,0,0,1,.64-.5,1.86,1.86,0,0,1,.81-.19h.57a1.61,1.61,0,0,1,1.21.49,1.65,1.65,0,0,1,.47,1.19v11H27a1.12,1.12,0,0,1,.84.36,1.15,1.15,0,0,1,.36.84,1.11,1.11,0,0,1-.34.84,1.2,1.2,0,0,1-.86.33H24.9v3.84a1.28,1.28,0,0,1-.4.93,1.34,1.34,0,0,1-.94.38A1.3,1.3,0,0,1,22.63,30.31ZM22.19,14c0-.06-.07-.09-.11-.09s-.13.06-.23.17l-6.78,8.72A.32.32,0,0,0,15,23c0,.14.1.2.31.2h7v-9A.32.32,0,0,0,22.19,14Z"/></g></g></svg>