<svg xmlns="http://www.w3.org/2000/svg" viewBox="0 0 41.16 41.16" width="42px" height="42px"><defs><style>.cls-1{fill:#f68a6b;}.cls-2{fill:#fff;}</style></defs><g id="圖層_2" data-name="圖層 2"><g id="注意事項"><circle class="cls-1" cx="20.58" cy="20.58" r="20.58"/><path class="cls-2" d="M13.59,29.18a1.39,1.39,0,0,1-.42-.42,1.18,1.18,0,0,1-.15-.63,1.28,1.28,0,0,1,.33-.9,1.08,1.08,0,0,1,.84-.35,1.51,1.51,0,0,1,.6.14,9.78,9.78,0,0,0,4.55,1.19,7.45,7.45,0,0,0,4.16-.92,3.44,3.44,0,0,0,1.37-3.06,3.47,3.47,0,0,0-1.17-2.78,4.78,4.78,0,0,0-3.22-1,8.11,8.11,0,0,0-4.35,1.22l-.34.18a1.38,1.38,0,0,1-.69.17,2,2,0,0,1-1.37-.47,1.54,1.54,0,0,1-.54-1.21,5.8,5.8,0,0,1,.06-.69l1.28-7.57A1.74,1.74,0,0,1,15,11a1.44,1.44,0,0,1,1-.39h9.14a1.26,1.26,0,0,1,1.25,1.25,1.16,1.16,0,0,1-.37.87,1.24,1.24,0,0,1-.88.35H17.52a.55.55,0,0,0-.62.52L16.07,19a10.33,10.33,0,0,1,4.78-1.13,7.64,7.64,0,0,1,3.62.82A5.58,5.58,0,0,1,26.73,21a6.89,6.89,0,0,1,.79,3.36,5.93,5.93,0,0,1-2,4.71,8.62,8.62,0,0,1-5.81,1.75A11.21,11.21,0,0,1,13.59,29.18Z"/></g></g></svg>