<svg xmlns="http://www.w3.org/2000/svg" viewBox="0 0 41.16 41.16" width="42px" height="42px"><defs><style>.cls-1{fill:#f68a6b;}.cls-2{fill:#fff;}</style></defs><g id="圖層_2" data-name="圖層 2"><g id="注意事項"><circle class="cls-1" cx="20.58" cy="20.58" r="20.58"/><path class="cls-2" d="M27,20.85a7.34,7.34,0,0,1,.81,3.49,6.55,6.55,0,0,1-.85,3.28A6,6,0,0,1,24.41,30a7.91,7.91,0,0,1-3.7.84q-7.83,0-7.83-10.22a14.66,14.66,0,0,1,.83-4.81,8.36,8.36,0,0,1,2.76-4,7.37,7.37,0,0,1,4.7-1.5,11,11,0,0,1,2.69.31,11.79,11.79,0,0,1,2.35.92,1,1,0,0,1,.45.44,1.17,1.17,0,0,1-.17,1.43,1.11,1.11,0,0,1-.85.38,1.37,1.37,0,0,1-.49-.09,8.94,8.94,0,0,0-3.78-.83,5,5,0,0,0-4.35,2A9.84,9.84,0,0,0,15.42,20a7.08,7.08,0,0,1,5.8-2.42,6.93,6.93,0,0,1,3.42.83A6,6,0,0,1,27,20.85Zm-2.38,5.47a4,4,0,0,0,.54-2A4.24,4.24,0,0,0,24,21.17,4.16,4.16,0,0,0,20.91,20a5.65,5.65,0,0,0-5.35,3.11q.76,5.21,5.18,5.21a4.88,4.88,0,0,0,2.34-.57A3.92,3.92,0,0,0,24.58,26.32Z"/></g></g></svg>