<?xml version="1.0" encoding="utf-8"?>
<!-- Generator: Adobe Illustrator 24.2.3, SVG Export Plug-In . SVG Version: 6.00 Build 0)  -->
<svg version="1.1" id="圖層_1" xmlns="http://www.w3.org/2000/svg" xmlns:xlink="http://www.w3.org/1999/xlink" x="0px" y="0px"
	 viewBox="0 0 42 42" style="enable-background:new 0 0 42 42;" width="42px" height="42px" xml:space="preserve">
<style type="text/css">
	.st0{fill:#F68A6B;}
	.st1{fill:#FFFFFF;}
</style>
<g>
	<g id="圖層_2_4_">
		<g id="注意事項_3_">
			<g>
				<circle class="st0" cx="21" cy="21" r="21"/>
			</g>
		</g>
	</g>
	<g>
		<path class="st1" d="M28.3,19.3c0,1.7-0.3,3.3-0.8,4.8c-0.6,1.7-1.5,3-2.8,4c-1.3,1-2.9,1.5-4.7,1.5c-1,0-1.9-0.1-2.7-0.3
			c-0.8-0.2-1.6-0.5-2.3-0.9c-0.2-0.1-0.3-0.2-0.5-0.4c-0.1-0.2-0.2-0.4-0.2-0.6c0-0.3,0.1-0.6,0.4-0.8s0.5-0.4,0.8-0.4
			c0.2,0,0.3,0,0.5,0.1c1.2,0.6,2.5,0.8,3.8,0.8c2,0,3.4-0.7,4.3-2c0.9-1.3,1.5-3.1,1.6-5.1c-1.3,1.6-3.3,2.4-5.8,2.4
			c-1.3,0-2.4-0.3-3.4-0.8c-1-0.6-1.8-1.4-2.3-2.4s-0.8-2.2-0.8-3.5c0-1.2,0.3-2.3,0.9-3.3c0.6-1,1.4-1.8,2.5-2.4
			c1.1-0.6,2.3-0.8,3.7-0.8C25.7,9.1,28.3,12.5,28.3,19.3z M25.6,16.8c-0.5-3.5-2.2-5.2-5.2-5.2c-0.9,0-1.6,0.2-2.3,0.5
			c-0.7,0.4-1.2,0.8-1.5,1.5S16,14.9,16,15.7c0,1.3,0.4,2.4,1.1,3.1c0.7,0.8,1.8,1.1,3.1,1.1C22.7,19.9,24.5,18.9,25.6,16.8z"/>
	</g>
</g>
</svg>
