<svg xmlns="http://www.w3.org/2000/svg" viewBox="0 0 45.74 45.74" width="46px" height="46px"><defs><style>.cls-1{fill:#f68a6b;}.cls-2{fill:#fff;}</style></defs><g id="圖層_2" data-name="圖層 2"><g id="注意事項"><circle class="cls-1" cx="22.87" cy="22.87" r="22.87"/><path class="cls-2" d="M18.71,35.09l-3.07-3.71a9.89,9.89,0,0,1-1.71.12,10.41,10.41,0,0,1-5.27-1.31A9.23,9.23,0,0,1,5.2,26.56,11.51,11.51,0,0,1,5.19,16a8.85,8.85,0,0,1,3.5-3.65A10.35,10.35,0,0,1,13.93,11,10.43,10.43,0,0,1,19.2,12.3,9.15,9.15,0,0,1,22.66,16,11.72,11.72,0,0,1,24,21.25a11.12,11.12,0,0,1-1.61,5.82,9,9,0,0,1-4.26,3.63l2.48,2.73a1.36,1.36,0,0,1,.34.92,1.1,1.1,0,0,1-.38.84,1.29,1.29,0,0,1-.87.35A1.23,1.23,0,0,1,18.71,35.09ZM17.86,28a6.83,6.83,0,0,0,2.55-2.75,8.75,8.75,0,0,0,.89-4,8.8,8.8,0,0,0-.88-4,6.66,6.66,0,0,0-2.59-2.79,7.45,7.45,0,0,0-3.9-1,7.15,7.15,0,0,0-3.93,1,6.71,6.71,0,0,0-2.55,2.75,8.6,8.6,0,0,0-.9,4,8.86,8.86,0,0,0,.88,4A6.63,6.63,0,0,0,10,28a7.63,7.63,0,0,0,3.92,1A7.23,7.23,0,0,0,17.86,28Z"/><path class="cls-2" d="M29.66,30.86A1.19,1.19,0,0,1,29.3,30a1.21,1.21,0,0,1,.36-.88,1.16,1.16,0,0,1,.87-.37h3.36V14.81a.31.31,0,0,0-.1-.27c-.07,0-.17,0-.3,0L31,15.78a1.61,1.61,0,0,1-.65.17,1.22,1.22,0,0,1-.9-.36,1.18,1.18,0,0,1-.35-.89,1.25,1.25,0,0,1,.76-1.2l3.88-2a1.47,1.47,0,0,1,.79-.2h.6a1.42,1.42,0,0,1,1.4,1.39V28.74h2.79a1.19,1.19,0,0,1,.88.37,1.18,1.18,0,0,1,.37.88,1.16,1.16,0,0,1-.37.87,1.26,1.26,0,0,1-.88.35h-8.8A1.22,1.22,0,0,1,29.66,30.86Z"/></g></g></svg>