<?xml version="1.0" encoding="utf-8"?>
<!-- Generator: Adobe Illustrator 24.2.3, SVG Export Plug-In . SVG Version: 6.00 Build 0)  -->
<svg version="1.1" id="圖層_1" xmlns="http://www.w3.org/2000/svg" xmlns:xlink="http://www.w3.org/1999/xlink" x="0px" y="0px"
	 viewBox="0 0 46 46" style="enable-background:new 0 0 46 46;" width="46px" height="46px" xml:space="preserve">
<style type="text/css">
	.st0{fill:#F68A6B;}
	.st1{fill:#FFFFFF;stroke:#FFFFFF;stroke-width:0.25;stroke-miterlimit:10;}
</style>
<g>
	<g id="圖層_2_3_">
		<g id="注意事項_2_">
			<g>
				<circle class="st0" cx="23" cy="23" r="23"/>
			</g>
		</g>
	</g>
	<g id="圖層_2_4_">
		<g id="注意事項_3_">
			<g>
				<circle class="st0" cx="23" cy="23" r="23"/>
			</g>
		</g>
	</g>
	<g>
		<g>
			<path class="st1" d="M14.9,33.1l-2.6-3c-0.4,0.1-0.8,0.1-1.4,0.1c-1.6,0-3.1-0.3-4.3-1c-1.2-0.7-2.2-1.7-2.9-3
				C3,25,2.7,23.5,2.6,21.9c0-1.6,0.3-3.1,1-4.4c0.7-1.3,1.6-2.3,2.9-3c1.2-0.7,2.7-1.1,4.3-1.1c1.6,0,3.1,0.3,4.3,1
				c1.2,0.7,2.2,1.7,2.9,3s1.1,2.7,1.1,4.3c0,1.8-0.4,3.4-1.3,4.8c-0.8,1.4-2,2.4-3.5,3l2.1,2.2c0.2,0.2,0.3,0.5,0.3,0.7
				c0,0.3-0.1,0.5-0.3,0.7c-0.2,0.2-0.4,0.3-0.7,0.3C15.4,33.5,15.2,33.4,14.9,33.1z M14.2,27.3c0.9-0.6,1.6-1.3,2.1-2.3
				c0.5-1,0.7-2.1,0.7-3.3c0-1.2-0.3-2.3-0.8-3.3c-0.5-1-1.2-1.7-2.2-2.3c-0.9-0.5-2-0.8-3.2-0.8c-1.3,0-2.3,0.3-3.2,0.9
				c-0.9,0.6-1.6,1.3-2.1,2.3s-0.7,2.1-0.7,3.3c0,1.2,0.3,2.3,0.8,3.3c0.5,1,1.2,1.8,2.1,2.3s2,0.8,3.2,0.8
				C12.2,28.2,13.3,27.9,14.2,27.3z"/>
		</g>
		<g>
			<path class="st1" d="M21.6,29.6c-0.2-0.2-0.3-0.4-0.3-0.7c0-0.3,0.1-0.5,0.3-0.7c0.2-0.2,0.4-0.3,0.7-0.3l2.8,0L25,16.3
				c0-0.1,0-0.2-0.1-0.2s-0.1,0-0.2,0l-2,1c-0.2,0.1-0.4,0.1-0.5,0.1c-0.3,0-0.5-0.1-0.7-0.3S21,16.6,21,16.3c0-0.5,0.2-0.8,0.6-1
				l3.2-1.7c0.2-0.1,0.4-0.2,0.7-0.2l0.5,0c0.3,0,0.6,0.1,0.8,0.3c0.2,0.2,0.3,0.5,0.3,0.8l0.1,13.2l2.3,0c0.3,0,0.5,0.1,0.7,0.3
				s0.3,0.4,0.3,0.7c0,0.3-0.1,0.5-0.3,0.7c-0.2,0.2-0.4,0.3-0.7,0.3l-7.2,0.1C22.1,29.9,21.8,29.8,21.6,29.6z"/>
		</g>
		<g>
			<path class="st1" d="M33.4,29.5c-0.2-0.2-0.3-0.4-0.3-0.7c0-0.3,0.1-0.5,0.3-0.7c0.2-0.2,0.4-0.3,0.7-0.3l2.8,0l-0.1-11.5
				c0-0.1,0-0.2-0.1-0.2s-0.1,0-0.2,0l-2,1c-0.2,0.1-0.4,0.1-0.5,0.1c-0.3,0-0.5-0.1-0.7-0.3c-0.2-0.2-0.3-0.4-0.3-0.7
				c0-0.5,0.2-0.8,0.6-1l3.2-1.7c0.2-0.1,0.4-0.2,0.7-0.2l0.5,0c0.3,0,0.6,0.1,0.8,0.3s0.3,0.5,0.3,0.8l0.1,13.2l2.3,0
				c0.3,0,0.5,0.1,0.7,0.3c0.2,0.2,0.3,0.4,0.3,0.7c0,0.3-0.1,0.5-0.3,0.7c-0.2,0.2-0.4,0.3-0.7,0.3l-7.2,0.1
				C33.8,29.8,33.6,29.7,33.4,29.5z"/>
		</g>
	</g>
</g>
</svg>
