<?xml version="1.0" encoding="utf-8"?>
<!-- Generator: Adobe Illustrator 24.2.3, SVG Export Plug-In . SVG Version: 6.00 Build 0)  -->
<svg version="1.1" id="圖層_1" xmlns="http://www.w3.org/2000/svg" xmlns:xlink="http://www.w3.org/1999/xlink" x="0px" y="0px"
	 viewBox="0 0 46 46" style="enable-background:new 0 0 46 46;" width="46px" height="46px" xml:space="preserve">
<style type="text/css">
	.st0{fill:#F68A6B;}
	.st1{fill:#FFFFFF;stroke:#FFFFFF;stroke-width:0.25;stroke-miterlimit:10;}
</style>
<g>
	<g id="圖層_2_10_">
		<g id="注意事項_9_">
			<g>
				<circle class="st0" cx="23" cy="23" r="23"/>
			</g>
		</g>
	</g>
	<g id="圖層_2_9_">
		<g id="注意事項_8_">
			<g>
				<circle class="st0" cx="23" cy="23" r="23"/>
			</g>
		</g>
	</g>
	<g>
		<g>
			<path class="st1" d="M14.8,33.1l-2.5-3c-0.4,0.1-0.8,0.1-1.4,0.1c-1.6,0-3.1-0.4-4.3-1.1c-1.2-0.7-2.2-1.7-2.8-3s-1-2.7-1.1-4.4
				c0-1.6,0.4-3.1,1.1-4.4c0.7-1.3,1.6-2.3,2.9-3s2.7-1.1,4.3-1.1c1.6,0,3.1,0.4,4.3,1.1c1.2,0.7,2.2,1.7,2.8,3s1,2.7,1.1,4.4
				c0,1.8-0.5,3.4-1.3,4.8s-2,2.4-3.5,3l2,2.2c0.2,0.2,0.3,0.5,0.3,0.8c0,0.3-0.1,0.5-0.3,0.7s-0.4,0.3-0.7,0.3
				C15.3,33.4,15,33.3,14.8,33.1z M14.1,27.2c0.9-0.5,1.6-1.3,2.1-2.3s0.7-2.1,0.7-3.3c0-1.2-0.2-2.3-0.7-3.3
				c-0.5-1-1.2-1.8-2.1-2.3c-0.9-0.5-2-0.8-3.2-0.8c-1.3,0-2.3,0.3-3.2,0.8c-0.9,0.5-1.6,1.3-2.1,2.3s-0.7,2.1-0.7,3.3
				c0,1.2,0.2,2.3,0.7,3.3c0.5,1,1.2,1.8,2.1,2.3s2,0.8,3.2,0.8C12.2,28.1,13.2,27.8,14.1,27.2z"/>
		</g>
		<g>
			<path class="st1" d="M21.6,29.6c-0.2-0.2-0.3-0.4-0.3-0.7s0.1-0.5,0.3-0.7s0.4-0.3,0.7-0.3h2.8V16.4c0-0.1,0-0.2-0.1-0.2
				s-0.1,0-0.2,0l-2,1c-0.2,0.1-0.4,0.1-0.5,0.1c-0.3,0-0.5-0.1-0.7-0.3s-0.3-0.4-0.3-0.7c0-0.5,0.2-0.8,0.6-1l3.2-1.7
				c0.2-0.1,0.4-0.2,0.7-0.2h0.5c0.3,0,0.6,0.1,0.8,0.3s0.3,0.5,0.3,0.8v13.2h2.3c0.3,0,0.5,0.1,0.7,0.3s0.3,0.4,0.3,0.7
				s-0.1,0.5-0.3,0.7s-0.4,0.3-0.7,0.3h-7.2C22,29.9,21.8,29.8,21.6,29.6z"/>
		</g>
		<g>
			<path class="st1" d="M39.3,29.7c-0.2-0.2-0.3-0.5-0.3-0.8v-3.2h-7.1c-0.4,0-0.7-0.1-1-0.4s-0.4-0.6-0.4-1v-0.2
				c0-0.3,0.1-0.6,0.3-0.9l7.4-9.4c0.1-0.2,0.3-0.3,0.5-0.4s0.4-0.2,0.7-0.2h0.5c0.4,0,0.7,0.1,1,0.4s0.4,0.6,0.4,1v9.1h1.8
				c0.3,0,0.5,0.1,0.7,0.3s0.3,0.4,0.3,0.7c0,0.3-0.1,0.5-0.3,0.7s-0.4,0.3-0.7,0.3h-1.8v3.2c0,0.3-0.1,0.6-0.3,0.8S40.4,30,40.1,30
				S39.5,29.9,39.3,29.7z M38.9,16.2C38.9,16.2,38.9,16.2,38.9,16.2c-0.1-0.1-0.2,0-0.3,0.1l-5.6,7.2C33,23.5,33,23.6,33,23.6
				c0,0.1,0.1,0.2,0.3,0.2H39v-7.4C39,16.3,39,16.3,38.9,16.2z"/>
		</g>
	</g>
</g>
</svg>
