<svg xmlns="http://www.w3.org/2000/svg" viewBox="0 0 45.74 45.74" width="46px" height="46px"><defs><style>.cls-1{fill:#f68a6b;}.cls-2{fill:#fff;}</style></defs><g id="圖層_2" data-name="圖層 2"><g id="注意事項"><circle class="cls-1" cx="22.87" cy="22.87" r="22.87"/><path class="cls-2" d="M18.71,35.09l-3.07-3.71a9.89,9.89,0,0,1-1.71.12,10.41,10.41,0,0,1-5.27-1.31A9.23,9.23,0,0,1,5.2,26.56,11.51,11.51,0,0,1,5.19,16a8.85,8.85,0,0,1,3.5-3.65A10.35,10.35,0,0,1,13.93,11,10.43,10.43,0,0,1,19.2,12.3,9.15,9.15,0,0,1,22.66,16,11.72,11.72,0,0,1,24,21.25a11.12,11.12,0,0,1-1.61,5.82,9,9,0,0,1-4.26,3.63l2.48,2.73a1.36,1.36,0,0,1,.34.92,1.1,1.1,0,0,1-.38.84,1.29,1.29,0,0,1-.87.35A1.23,1.23,0,0,1,18.71,35.09ZM17.86,28a6.83,6.83,0,0,0,2.55-2.75,8.75,8.75,0,0,0,.89-4,8.8,8.8,0,0,0-.88-4,6.66,6.66,0,0,0-2.59-2.79,7.45,7.45,0,0,0-3.9-1,7.15,7.15,0,0,0-3.93,1,6.71,6.71,0,0,0-2.55,2.75,8.6,8.6,0,0,0-.9,4,8.86,8.86,0,0,0,.88,4A6.63,6.63,0,0,0,10,28a7.63,7.63,0,0,0,3.92,1A7.23,7.23,0,0,0,17.86,28Z"/><path class="cls-2" d="M27.74,30.8a1.43,1.43,0,0,1-.43-1.1,4.77,4.77,0,0,1,.88-2.76,10.09,10.09,0,0,1,1.94-2.09,38.57,38.57,0,0,1,3.42-2.38c1.1-.7,2-1.33,2.76-1.88C37.91,19.4,38.7,18.2,38.7,17a3.12,3.12,0,0,0-1.12-2.6,5.29,5.29,0,0,0-3.35-.9,11.76,11.76,0,0,0-4.87,1,1.64,1.64,0,0,1-.54.14,1.07,1.07,0,0,1-.78-.33,1.1,1.1,0,0,1-.33-.81,1.16,1.16,0,0,1,.66-1.08A13.89,13.89,0,0,1,34.69,11a7.41,7.41,0,0,1,3.33.72,5.74,5.74,0,0,1,2.39,2.06,5.66,5.66,0,0,1-.11,6.17,11.76,11.76,0,0,1-2.18,2.39A41.68,41.68,0,0,1,34.37,25c-1.44,1-2.47,1.73-3.09,2.23A4.76,4.76,0,0,0,30,28.74h9.85A1.26,1.26,0,0,1,41.09,30a1.16,1.16,0,0,1-.37.87,1.24,1.24,0,0,1-.88.35h-11A1.49,1.49,0,0,1,27.74,30.8Z"/></g></g></svg>