<svg xmlns="http://www.w3.org/2000/svg" viewBox="0 0 45.74 45.74" width="46px" height="46px"><defs><style>.cls-1{fill:#f68a6b;}.cls-2{fill:#fff;}</style></defs><g id="圖層_2" data-name="圖層 2"><g id="注意事項"><circle class="cls-1" cx="22.87" cy="22.87" r="22.87"/><path class="cls-2" d="M18.71,35.09l-3.07-3.71a9.89,9.89,0,0,1-1.71.12,10.41,10.41,0,0,1-5.27-1.31A9.16,9.16,0,0,1,5.2,26.56,11.51,11.51,0,0,1,5.19,16a8.85,8.85,0,0,1,3.5-3.65A10.35,10.35,0,0,1,13.93,11,10.43,10.43,0,0,1,19.2,12.3,9.15,9.15,0,0,1,22.66,16,11.72,11.72,0,0,1,24,21.25a11.12,11.12,0,0,1-1.61,5.82,9,9,0,0,1-4.26,3.63l2.48,2.73a1.36,1.36,0,0,1,.34.92,1.1,1.1,0,0,1-.38.84,1.29,1.29,0,0,1-.87.35A1.23,1.23,0,0,1,18.71,35.09ZM17.86,28a6.83,6.83,0,0,0,2.55-2.75,8.75,8.75,0,0,0,.89-4,8.8,8.8,0,0,0-.88-4,6.66,6.66,0,0,0-2.59-2.79,7.45,7.45,0,0,0-3.9-1,7.15,7.15,0,0,0-3.93,1,6.71,6.71,0,0,0-2.55,2.75,8.6,8.6,0,0,0-.9,4,8.86,8.86,0,0,0,.88,4A6.63,6.63,0,0,0,10,28a7.63,7.63,0,0,0,3.92,1A7.23,7.23,0,0,0,17.86,28Z"/><path class="cls-2" d="M40.11,22.58A4.82,4.82,0,0,1,41.27,26a4.72,4.72,0,0,1-2,4.06,9,9,0,0,1-5.37,1.47,15.17,15.17,0,0,1-5.95-1.14,1.12,1.12,0,0,1-.77-1.11,1.24,1.24,0,0,1,.33-.87,1.09,1.09,0,0,1,.84-.36,1.39,1.39,0,0,1,.54.12,12.16,12.16,0,0,0,4.53.82,8,8,0,0,0,3.8-.77,2.51,2.51,0,0,0,1.44-2.36q0-3.55-6.27-3.56H31.9A1.21,1.21,0,0,1,31,20.19a1.21,1.21,0,0,1,.86-.37h.17A8.72,8.72,0,0,0,36.42,19a2.77,2.77,0,0,0,1.49-2.54,2.45,2.45,0,0,0-1.17-2.17,6,6,0,0,0-3.31-.77,10.31,10.31,0,0,0-4.41.94,1.34,1.34,0,0,1-.51.12,1.07,1.07,0,0,1-.76-.32,1,1,0,0,1-.32-.77,1.07,1.07,0,0,1,.59-1A11.79,11.79,0,0,1,33.66,11a8.41,8.41,0,0,1,5.08,1.34,4.47,4.47,0,0,1,1.81,3.82,4.72,4.72,0,0,1-3.39,4.75A5.76,5.76,0,0,1,40.11,22.58Z"/></g></g></svg>