<svg xmlns="http://www.w3.org/2000/svg" viewBox="0 0 45.74 45.74" width="46px" height="46px"><defs><style>.cls-1{fill:#f68a6b;}.cls-2{fill:#fff;}</style></defs><g id="圖層_2" data-name="圖層 2"><g id="注意事項"><circle class="cls-1" cx="22.87" cy="22.87" r="22.87"/><path class="cls-2" d="M18.71,35.09l-3.07-3.71a9.89,9.89,0,0,1-1.71.12,10.41,10.41,0,0,1-5.27-1.31A9.16,9.16,0,0,1,5.2,26.56,11.51,11.51,0,0,1,5.19,16a8.85,8.85,0,0,1,3.5-3.65A10.35,10.35,0,0,1,13.93,11,10.43,10.43,0,0,1,19.2,12.3,9.15,9.15,0,0,1,22.66,16,11.72,11.72,0,0,1,24,21.25a11.12,11.12,0,0,1-1.61,5.82,9,9,0,0,1-4.26,3.63l2.48,2.73a1.36,1.36,0,0,1,.34.92,1.1,1.1,0,0,1-.38.84,1.29,1.29,0,0,1-.87.35A1.23,1.23,0,0,1,18.71,35.09ZM17.86,28a6.83,6.83,0,0,0,2.55-2.75,8.75,8.75,0,0,0,.89-4,8.8,8.8,0,0,0-.88-4,6.66,6.66,0,0,0-2.59-2.79,7.45,7.45,0,0,0-3.9-1,7.15,7.15,0,0,0-3.93,1,6.71,6.71,0,0,0-2.55,2.75,8.6,8.6,0,0,0-.9,4,8.86,8.86,0,0,0,.88,4A6.63,6.63,0,0,0,10,28a7.63,7.63,0,0,0,3.92,1A7.23,7.23,0,0,0,17.86,28Z"/><path class="cls-2" d="M36.89,31a1.28,1.28,0,0,1-.38-.92V26.2H27.85a1.65,1.65,0,0,1-1.18-.48,1.59,1.59,0,0,1-.5-1.17v-.26a1.74,1.74,0,0,1,.34-1.05l9-11.42a1.88,1.88,0,0,1,.64-.5,1.85,1.85,0,0,1,.81-.18h.57a1.64,1.64,0,0,1,1.21.48,1.66,1.66,0,0,1,.47,1.2v11h2.13A1.21,1.21,0,0,1,42.49,25a1.08,1.08,0,0,1-.34.84,1.18,1.18,0,0,1-.86.33H39.16v3.85a1.22,1.22,0,0,1-.4.92,1.31,1.31,0,0,1-.94.39A1.27,1.27,0,0,1,36.89,31Zm-.44-16.33c0-.06-.07-.09-.11-.09s-.13.06-.23.18l-6.78,8.71a.31.31,0,0,0-.11.2c0,.13.1.2.31.2h7v-9A.34.34,0,0,0,36.45,14.64Z"/></g></g></svg>