<svg xmlns="http://www.w3.org/2000/svg" viewBox="0 0 45.74 45.74" width="46px" height="46px"><defs><style>.cls-1{fill:#f68a6b;}.cls-2{fill:#fff;}</style></defs><g id="圖層_2" data-name="圖層 2"><g id="注意事項"><circle class="cls-1" cx="22.87" cy="22.87" r="22.87"/><path class="cls-2" d="M18.71,35.09l-3.07-3.71a9.89,9.89,0,0,1-1.71.12,10.41,10.41,0,0,1-5.27-1.31A9.23,9.23,0,0,1,5.2,26.56,11.51,11.51,0,0,1,5.19,16a8.85,8.85,0,0,1,3.5-3.65A10.35,10.35,0,0,1,13.93,11,10.43,10.43,0,0,1,19.2,12.3,9.15,9.15,0,0,1,22.66,16,11.72,11.72,0,0,1,24,21.25a11.12,11.12,0,0,1-1.61,5.82,9,9,0,0,1-4.26,3.63l2.48,2.73a1.36,1.36,0,0,1,.34.92,1.1,1.1,0,0,1-.38.84,1.29,1.29,0,0,1-.87.35A1.23,1.23,0,0,1,18.71,35.09ZM17.86,28a6.77,6.77,0,0,0,2.55-2.75,8.75,8.75,0,0,0,.89-4,8.8,8.8,0,0,0-.88-4,6.66,6.66,0,0,0-2.59-2.79,7.45,7.45,0,0,0-3.9-1,7.15,7.15,0,0,0-3.93,1,6.71,6.71,0,0,0-2.55,2.75,8.6,8.6,0,0,0-.9,4,8.86,8.86,0,0,0,.88,4A6.63,6.63,0,0,0,10,28a7.63,7.63,0,0,0,3.92,1A7.23,7.23,0,0,0,17.86,28Z"/><path class="cls-2" d="M27.85,29.85a1.54,1.54,0,0,1-.42-.43,1.13,1.13,0,0,1-.15-.63,1.24,1.24,0,0,1,.33-.89,1.09,1.09,0,0,1,.84-.36,1.71,1.71,0,0,1,.6.14,9.84,9.84,0,0,0,4.56,1.2A7.43,7.43,0,0,0,37.76,28a3.41,3.41,0,0,0,1.37-3.06A3.49,3.49,0,0,0,38,22.11a4.78,4.78,0,0,0-3.22-1,8,8,0,0,0-4.35,1.23l-.34.17a1.36,1.36,0,0,1-.69.17A2.05,2.05,0,0,1,28,22.2,1.53,1.53,0,0,1,27.45,21a5.67,5.67,0,0,1,.06-.68l1.28-7.58a1.76,1.76,0,0,1,.5-1.05,1.43,1.43,0,0,1,1-.4h9.14a1.18,1.18,0,0,1,.88.37,1.19,1.19,0,0,1,.37.88,1.16,1.16,0,0,1-.37.87,1.21,1.21,0,0,1-.88.36H31.78a.55.55,0,0,0-.62.51l-.83,5.44a10.22,10.22,0,0,1,4.78-1.14,7.53,7.53,0,0,1,3.62.83A5.61,5.61,0,0,1,41,21.67,6.89,6.89,0,0,1,41.78,25a6,6,0,0,1-2,4.72A8.67,8.67,0,0,1,34,31.5,11.21,11.21,0,0,1,27.85,29.85Z"/></g></g></svg>