<svg xmlns="http://www.w3.org/2000/svg" viewBox="0 0 45.74 45.74" width="46px" height="46px"><defs><style>.cls-1{fill:#f68a6b;}.cls-2{fill:#fff;}</style></defs><g id="圖層_2" data-name="圖層 2"><g id="注意事項"><circle class="cls-1" cx="22.87" cy="22.87" r="22.87"/><path class="cls-2" d="M18.71,35.09l-3.07-3.71a9.89,9.89,0,0,1-1.71.12,10.41,10.41,0,0,1-5.27-1.31A9.16,9.16,0,0,1,5.2,26.56,11.51,11.51,0,0,1,5.19,16a8.85,8.85,0,0,1,3.5-3.65A10.35,10.35,0,0,1,13.93,11,10.43,10.43,0,0,1,19.2,12.3,9.15,9.15,0,0,1,22.66,16,11.72,11.72,0,0,1,24,21.25a11.12,11.12,0,0,1-1.61,5.82,9,9,0,0,1-4.26,3.63l2.48,2.73a1.36,1.36,0,0,1,.34.92,1.1,1.1,0,0,1-.38.84,1.29,1.29,0,0,1-.87.35A1.23,1.23,0,0,1,18.71,35.09ZM17.86,28a6.83,6.83,0,0,0,2.55-2.75,8.75,8.75,0,0,0,.89-4,8.8,8.8,0,0,0-.88-4,6.66,6.66,0,0,0-2.59-2.79,7.45,7.45,0,0,0-3.9-1,7.15,7.15,0,0,0-3.93,1,6.71,6.71,0,0,0-2.55,2.75,8.6,8.6,0,0,0-.9,4,8.86,8.86,0,0,0,.88,4A6.63,6.63,0,0,0,10,28a7.63,7.63,0,0,0,3.92,1A7.23,7.23,0,0,0,17.86,28Z"/><path class="cls-2" d="M41.22,21.52A7.31,7.31,0,0,1,42,25a6.54,6.54,0,0,1-.85,3.27,6,6,0,0,1-2.51,2.38,7.91,7.91,0,0,1-3.7.84q-7.83,0-7.83-10.22A14.72,14.72,0,0,1,28,16.46a8.41,8.41,0,0,1,2.76-4,7.37,7.37,0,0,1,4.7-1.5,10.5,10.5,0,0,1,2.69.32,11.74,11.74,0,0,1,2.35.91,1,1,0,0,1,.45.44,1.15,1.15,0,0,1,.17.61,1.18,1.18,0,0,1-.34.83,1.1,1.1,0,0,1-.85.37,1.37,1.37,0,0,1-.49-.09,8.93,8.93,0,0,0-3.78-.82,5,5,0,0,0-4.35,2,9.81,9.81,0,0,0-1.6,5.14,7.05,7.05,0,0,1,5.8-2.43,6.9,6.9,0,0,1,3.42.83A6,6,0,0,1,41.22,21.52ZM38.84,27a3.94,3.94,0,0,0,.55-2,4.25,4.25,0,0,0-1.11-3.12,4.17,4.17,0,0,0-3.11-1.12,5.65,5.65,0,0,0-5.35,3.1Q30.58,29,35,29a4.88,4.88,0,0,0,2.34-.57A3.92,3.92,0,0,0,38.84,27Z"/></g></g></svg>