<svg xmlns="http://www.w3.org/2000/svg" viewBox="0 0 45.74 45.74" width="46px" height="46px"><defs><style>.cls-1{fill:#f68a6b;}.cls-2{fill:#fff;}</style></defs><g id="圖層_2" data-name="圖層 2"><g id="注意事項"><circle class="cls-1" cx="22.87" cy="22.87" r="22.87"/><path class="cls-2" d="M18.62,35.06l-3.06-3.68a9.64,9.64,0,0,1-1.69.12,10.36,10.36,0,0,1-5.25-1.31,9,9,0,0,1-3.43-3.61A11.32,11.32,0,0,1,3.9,21.3,11.49,11.49,0,0,1,5.17,16a8.86,8.86,0,0,1,3.48-3.62,10.27,10.27,0,0,1,5.22-1.3,10.28,10.28,0,0,1,5.23,1.3A9,9,0,0,1,22.54,16a11.5,11.5,0,0,1,1.29,5.27,11.1,11.1,0,0,1-1.6,5.79A8.93,8.93,0,0,1,18,30.7l2.46,2.72a1.36,1.36,0,0,1,.34.91,1.07,1.07,0,0,1-.38.83,1.2,1.2,0,0,1-1.8-.1Zm-.85-7a6.69,6.69,0,0,0,2.54-2.73,8.67,8.67,0,0,0,.89-4,8.67,8.67,0,0,0-.88-4,6.6,6.6,0,0,0-2.58-2.78,7.43,7.43,0,0,0-3.87-1,7.16,7.16,0,0,0-3.91,1,6.69,6.69,0,0,0-2.54,2.73,8.67,8.67,0,0,0-.89,4,8.71,8.71,0,0,0,.88,4A6.65,6.65,0,0,0,10,28.06a7.55,7.55,0,0,0,3.9,1A7.15,7.15,0,0,0,17.77,28Z"/><path class="cls-2" d="M31,31a1.23,1.23,0,0,1-.39-.92,1.34,1.34,0,0,1,.17-.68L38.3,14.31a1.29,1.29,0,0,0,.06-.2c0-.13-.09-.2-.28-.2h-9.8a1.19,1.19,0,0,1-.88-.37,1.22,1.22,0,0,1-.37-.88,1.27,1.27,0,0,1,.37-.89,1.2,1.2,0,0,1,.88-.38H39.83a1.65,1.65,0,0,1,1.15.42,1.44,1.44,0,0,1,.47,1.11,3.25,3.25,0,0,1-.28,1.24L33.12,30.62a1.35,1.35,0,0,1-.52.54,1.49,1.49,0,0,1-.72.19A1.22,1.22,0,0,1,31,31Z"/></g></g></svg>