<svg xmlns="http://www.w3.org/2000/svg" viewBox="0 0 45.74 45.74" width="46px" height="46px"><defs><style>.cls-1{fill:#f68a6b;}.cls-2{fill:#fff;}</style></defs><g id="圖層_2" data-name="圖層 2"><g id="注意事項"><circle class="cls-1" cx="22.87" cy="22.87" r="22.87"/><path class="cls-2" d="M18.71,35.09l-3.07-3.71a9.89,9.89,0,0,1-1.71.12,10.41,10.41,0,0,1-5.27-1.31A9.1,9.1,0,0,1,5.2,26.56,11.51,11.51,0,0,1,5.19,16a8.85,8.85,0,0,1,3.5-3.65A10.35,10.35,0,0,1,13.93,11,10.43,10.43,0,0,1,19.2,12.3,9.15,9.15,0,0,1,22.66,16,11.72,11.72,0,0,1,24,21.25a11.12,11.12,0,0,1-1.61,5.82,9,9,0,0,1-4.26,3.63l2.48,2.73a1.36,1.36,0,0,1,.34.92,1.1,1.1,0,0,1-.38.84,1.29,1.29,0,0,1-.87.35A1.23,1.23,0,0,1,18.71,35.09ZM17.86,28a6.77,6.77,0,0,0,2.55-2.75,8.75,8.75,0,0,0,.89-4,8.8,8.8,0,0,0-.88-4,6.66,6.66,0,0,0-2.59-2.79,7.45,7.45,0,0,0-3.9-1,7.15,7.15,0,0,0-3.93,1,6.71,6.71,0,0,0-2.55,2.75,8.6,8.6,0,0,0-.9,4,8.86,8.86,0,0,0,.88,4A6.63,6.63,0,0,0,10,28a7.63,7.63,0,0,0,3.92,1A7.23,7.23,0,0,0,17.86,28Z"/><path class="cls-2" d="M30.07,30.67a5.82,5.82,0,0,1-2.46-2.05,4.88,4.88,0,0,1-.81-2.7c0-2.64,1.39-4.44,4.19-5.39a5.24,5.24,0,0,1-2.37-1.65,4.15,4.15,0,0,1-.88-2.67,4.66,4.66,0,0,1,.68-2.42,4.82,4.82,0,0,1,2.22-2A8.62,8.62,0,0,1,34.43,11a8.39,8.39,0,0,1,3.85.77,5.23,5.23,0,0,1,2.13,1.94,4.78,4.78,0,0,1,.71,2.51,4.15,4.15,0,0,1-.88,2.67,5.26,5.26,0,0,1-2.36,1.65q4.18,1.42,4.18,5.39a4.93,4.93,0,0,1-.77,2.67,5.34,5.34,0,0,1-2.55,2.12,10.37,10.37,0,0,1-4.31.79A10,10,0,0,1,30.07,30.67Zm7.27-2.11a4.1,4.1,0,0,0,1.55-1.33,2.89,2.89,0,0,0,.52-1.6A3.27,3.27,0,0,0,38,22.84a5.92,5.92,0,0,0-3.57-1,5.94,5.94,0,0,0-3.57,1,3.27,3.27,0,0,0-1.41,2.79A3,3,0,0,0,30,27.17a3.92,3.92,0,0,0,1.67,1.44,6.29,6.29,0,0,0,2.8.55A6.22,6.22,0,0,0,37.34,28.56Zm.11-10a2.75,2.75,0,0,0,1-2.18,2.65,2.65,0,0,0-1.08-2.24,4.84,4.84,0,0,0-3-.81,4.84,4.84,0,0,0-3,.81,2.65,2.65,0,0,0-1.08,2.24,2.75,2.75,0,0,0,1,2.18,4.63,4.63,0,0,0,3,.86A4.61,4.61,0,0,0,37.45,18.56Z"/></g></g></svg>