<?xml version="1.0" encoding="utf-8"?>
<!-- Generator: Adobe Illustrator 25.3.1, SVG Export Plug-In . SVG Version: 6.00 Build 0)  -->
<svg version="1.1" id="圖層_1" xmlns="http://www.w3.org/2000/svg" xmlns:xlink="http://www.w3.org/1999/xlink" x="0px" y="0px"
	 viewBox="0 0 834 72" width="834px" height="72px" style="enable-background:new 0 0 834 72;" xml:space="preserve">
<style type="text/css">
	.st0{fill:#FFFFFF;}
	.st1{fill:#F3BA61;}
</style>
<g id="圖層_2_1_">
	<g id="地圖">
		<path class="st0" d="M833.5,68.3c0-26-21.1-47.1-47.1-47.1H52.9c-26,0-47.1,21.1-47.2,47.1V72h827.7L833.5,68.3z"/>
		<path class="st1" d="M51,8.4h510.2V0.9H51C23.2,1,0.6,23.5,0.5,51.4V72H8V51.4C8,27.6,27.3,8.4,51,8.4z"/>
		<rect x="659.3" y="0.9" class="st1" width="62.3" height="7.4"/>
		<path class="st1" d="M833.5,51.4c0-27.5-22-49.9-49.5-50.5v7.5c23.3,0.6,42,19.7,42,43V72h7.4L833.5,51.4z"/>
	</g>
</g>
</svg>
