<?xml version="1.0" encoding="utf-8"?>
<!-- Generator: Adobe Illustrator 25.3.1, SVG Export Plug-In . SVG Version: 6.00 Build 0)  -->
<svg version="1.1" id="圖層_1" xmlns="http://www.w3.org/2000/svg" xmlns:xlink="http://www.w3.org/1999/xlink" x="0px" y="0px"
	 viewBox="0 0 834 120" width="834px" height="120px" style="enable-background:new 0 0 834 120;" xml:space="preserve">
<style type="text/css">
	.st0{fill:#FFFFFF;}
	.st1{fill:#F3BA61;}
</style>
<path class="st0" d="M0.4,13.2c0,26,28.1,47.1,54.1,47.1l0,0h470.9l97,52.7V60.3h162.5c26,0,47.1-21.1,47.2-47.1V0H0.4V13.2z"/>
<path class="st1" d="M783,41.4H600.7v65l-121.6-65H156.8v7.4H476l132.1,69.5V48.8h174.8c27.2,0,49.5-21.6,50.4-48.8h-7.4
	C825.1,23.1,806.1,41.4,783,41.4z"/>
<path class="st1" d="M7.4,0c0.8,23.1,19.8,41.4,42.9,41.4h3.9v7.4h-3.8C23.2,48.8,0.9,27.2,0,0L7.4,0z"/>
</svg>
