<?xml version="1.0" encoding="utf-8"?>
<!-- Generator: Adobe Illustrator 24.2.3, SVG Export Plug-In . SVG Version: 6.00 Build 0)  -->
<svg version="1.1" id="圖層_1" xmlns="http://www.w3.org/2000/svg" xmlns:xlink="http://www.w3.org/1999/xlink" x="0px" y="0px"
	 viewBox="0 0 1920 12" style="enable-background:new 0 0 1920 12;" width="1920px" height="12px" xml:space="preserve">
<style type="text/css">
	.st0{fill:#FFDFB8;}
	.st1{fill:#FFFFFF;}
</style>
<g>
	<g>
		<path class="st0" d="M2001.7,10.8H-81.7c-2.8,0-5-2.2-5-5s2.2-5,5-5h2083.4c2.8,0,5,2.2,5,5S2004.5,10.8,2001.7,10.8z"/>
	</g>
	<g>
		<g>
			<path class="st1" d="M429.7,11.2H79.4c-3,0-5.3-2.2-5.3-5s2.3-5,5.3-5h350.2c3,0,5.3,2.2,5.3,5S432.6,11.2,429.7,11.2z"/>
		</g>
		<g>
			<path class="st1" d="M1866,11.2h-332.2c-2.8,0-5-2.2-5-5s2.2-5,5-5H1866c2.8,0,5,2.2,5,5S1868.8,11.2,1866,11.2z"/>
		</g>
	</g>
</g>
</svg>
